<svg id="Group_2_Group_2_copy_Image" data-name="Group 2 + Group 2 copy Image" xmlns="http://www.w3.org/2000/svg" width="1323.1474" height="1200.7167" viewBox="0 0 1323.1474 1200.7167"><path d="M795.4159,100.32c.8179.9782,1.5869,2.0026,2.4611,2.9275,8.6767,9.18,17.4124,18.3057,26.0267,27.5441a9.8848,9.8848,0,0,0,6.5328,3.3629,200.251,200.251,0,0,0,45.4551.5959c11.4982-1.2626,22.6959-3.7579,33.1026-9.0609.9282.9634.0006,1.4723-.4438,1.96a91.0735,91.0735,0,0,1-12.8972,11.4382c-10.785,8.0766-22.4427,14.7133-34.4062,20.8446-1.9825,1.0159-3.9531,2.0549-6.1285,3.187a27.35,27.35,0,0,0,1.8156,2.4216c10.327,10.921,20.6938,21.8043,30.9922,32.7521a8.36,8.36,0,0,0,5.363,2.7466,331.3058,331.3058,0,0,0,50.7045,2.7909c16.1677-.4753,32.2058-2.0588,47.8863-6.3347a114.4736,114.4736,0,0,0,20.6388-7.6436c.9537-.47,1.9563-.8418,2.9623-1.27.5632,1.245-.26,1.702-.707,2.2114a117.7338,117.7338,0,0,1-14.6535,13.79A271.5363,271.5363,0,0,1,963.4789,229.07a582.1531,582.1531,0,0,1-67.744,32.662,20.3163,20.3163,0,0,1-7.9114,1.4937Q678.2318,263.18,468.64,263.213a19.1121,19.1121,0,0,1-7.4893-1.2062c-26.3478-10.8217-52.0256-22.9976-76.4635-37.689a236.7565,236.7565,0,0,1-31.7181-22.3522,109.4461,109.4461,0,0,1-12.9-12.761c.8384-1.0781,1.515-.4219,2.1228-.1119,14.7325,7.5154,30.5554,11.095,46.8365,13.0578a259.4329,259.4329,0,0,0,36.3737,1.7233,363.0079,363.0079,0,0,0,37.7525-2.876,7.1577,7.1577,0,0,0,4.646-2.1511q16.1154-17.11,32.2937-34.1618a8.92,8.92,0,0,0,.873-1.5159c-1.4143-.7872-2.7372-1.5843-4.1118-2.2789a284.2215,284.2215,0,0,1-26.6819-15.1239,124.9638,124.9638,0,0,1-20.0284-15.581c-1.0806-1.0661-2.457-1.9633-2.967-4.1069a23.4225,23.4225,0,0,1,2.4717.7814c10.7544,4.9124,22.151,7.0783,33.8411,8.1679a206.05,206.05,0,0,0,43.0635-.9713,7.541,7.541,0,0,0,4.971-2.4349c9.0966-9.6634,18.2494-19.2739,27.3513-28.9325a13.636,13.636,0,0,0,1.4664-2.3689Z" transform="translate(-16.3189 -100.32)"/><path d="M567.06,1301.0367c-.0951-1.27-.2719-2.54-.2731-3.81q-.0261-28.7653-.005-57.5306c0-1.113.0935-2.2261.1548-3.5886a19.1967,19.1967,0,0,1,2.6654-.5869c1.27-.1032,2.554-.0366,3.832-.0366q104.7179-.0009,209.4357.013c2.042,0,4.1268-.3043,6.1993.4083.8638,1.71.4836,3.4976.4867,5.2071q.0494,27.5667.0241,55.1334c0,1.5969.0517,3.1939.0792,4.7908Z" transform="translate(-16.3189 -100.32)"/><path d="M1184.0049,1301.0367q.0413-28.3109.082-56.6218c.0039-2.6984.0007-5.3968.0007-8.3438,1.1628-.2277,2.0432-.4715,2.9385-.5557.9514-.0894,1.9171-.0313,2.8765-.0313q46.2921-.001,92.5844.0079c6.2255.0038,4.6924-.4945,8.352,4.0121q23.1377,28.4908,46.1767,57.0619c1.0617,1.3156,2.674,2.4115,2.4248,4.4707Z" transform="translate(-16.3189 -100.32)"/><path d="M16.3189,1301.0367a13.6325,13.6325,0,0,1,1.279-2.4672Q42.28,1268.0084,67.02,1237.4927c.4967-.6131,1.0668-1.1668,1.8414-2.0075q51.1492-.0053,102.9094-.0019c.1148,1.6138.2573,2.6893.258,3.765q.0194,29.4695-.0037,58.9388c-.0007.95-.1761,1.9-.27,2.85Z" transform="translate(-16.3189 -100.32)"/><path d="M1050.6373,1301.0367q.0415-27.5544.082-55.1089c.0046-3.1795.0007-6.3589.0007-9.7754a23.6607,23.6607,0,0,1,2.8492-.6308c1.1084-.1043,2.2334-.0374,3.3512-.0374q56.7705-.0012,113.5408.0078a21.2791,21.2791,0,0,1,5.9112.3829c.0868,1.2153.23,2.29.23,3.3654q.0194,29.4732-.0035,58.9463c-.0008.95-.1761,1.9-.27,2.85Z" transform="translate(-16.3189 -100.32)"/><path d="M179.43,1301.0367q.0414-27.5544.0822-55.1089c.0045-3.1795.0006-6.359.0006-9.7755a23.6206,23.6206,0,0,1,2.8491-.631c1.1085-.104,2.2334-.0371,3.3512-.0371q56.77-.0011,113.5409.0078a21.2919,21.2919,0,0,1,5.9114.3827c.0866,1.2153.2294,2.29.23,3.3656q.02,29.4734-.0035,58.9464c-.0008.95-.1762,1.9-.27,2.85Z" transform="translate(-16.3189 -100.32)"/><path d="M439.4492,1301.0367c.0974-1.7484.2775-3.4968.2795-5.2454.0207-18.2343-.0006-36.4685.0351-54.7028.0034-1.7144-.4375-3.5211.5916-5.1788a5.6645,5.6645,0,0,1,1.37-.3518q57.5613-.0426,115.1226-.0374a11.173,11.173,0,0,1,1.8633.3145c.995,1.7177.5634,3.5176.5669,5.224q.0558,27.5913.0268,55.1827c0,1.5983.0516,3.1967.0793,4.795Z" transform="translate(-16.3189 -100.32)"/><path d="M312.798,1301.0367q.0414-27.83.0822-55.659c.0043-3.0183.0006-6.0367.0006-9.3031a28.5146,28.5146,0,0,1,2.9346-.558c1.1122-.09,2.2368-.0325,3.3561-.0325q53.4849-.001,106.97.0156c1.8924.0011,3.8328-.3356,5.6985.4314,1.0159,1.6363.575,3.443.5783,5.1574.0358,18.2343.0144,36.4685.0351,54.7028.002,1.7486.1821,3.497.2795,5.2454Z" transform="translate(-16.3189 -100.32)"/><path d="M797.3349,1301.0367c-.0951-1.27-.272-2.5408-.2731-3.8113q-.0262-28.7757-.0047-57.5515c0-1.1115.1-2.2229.1647-3.5817a21.7572,21.7572,0,0,1,2.68-.5738c1.11-.1015,2.2353-.0343,3.3539-.0343q53.4567-.0009,106.9134.0056c1.8828,0,3.7657.0912,5.8423.1448a20.6647,20.6647,0,0,1,.3526,2.5769q-.0081,31.4126-.0536,62.8253Z" transform="translate(-16.3189 -100.32)"/><path d="M923.9861,1301.0367q-.0336-31.4126-.06-62.8253c0-.626.1087-1.252.1922-2.1525a22.374,22.374,0,0,1,2.6549-.5408c1.1106-.0966,2.2354-.034,3.3541-.034q53.4567-.001,106.9134.0063c1.88.0005,3.76.1022,5.7725.1606a13.28,13.28,0,0,1,.3871,2.105q.0333,30.6937.0181,61.3876a13.7807,13.7807,0,0,1-.257,1.8931Z" transform="translate(-16.3189 -100.32)"/><path d="M331.04,630.8065c-1.4393,0-2.8812-.0468-4.3166.0288a28.0842,28.0842,0,0,0-2.9355.4749c-.0516,2.1362-.1369,4.03-.1373,5.925q-.0122,50.3886-.0063,100.7774c0,1.44.0375,2.8813-.0255,4.3183-.04.9044-.2347,1.802-.3929,2.94-4.0863.2183-7.9025.0584-11.7115.1223-6.1355.1029-4.4586-.8376-9.009,3.9566q-41.1248,43.3267-82.2015,86.6991c-10.1231,10.6786-20.2778,21.3274-30.35,32.0542a8.8794,8.8794,0,0,1-6.1614,3.1244c-7.0088.5353-13.9866,1.4782-20.996,2.0014-20.7977,1.5522-41.5466,1.18-62.16-2.2633-12.6634-2.1154-24.9609-5.5024-36.482-11.3436-.6788-.3442-1.3975-.61-2.0977-.9117l-.6487.6925a50.11,50.11,0,0,0,3.4573,3.8949c4.579,4.2273,9.0725,8.57,13.8949,12.5061,10.1811,8.3093,21.2581,15.3369,32.6105,21.9213a593.0012,593.0012,0,0,0,67.1227,32.8966,32.8073,32.8073,0,0,0,13.899,2.7875l974.8085-.0466a16.3452,16.3452,0,0,0,6.9786-1.3222,587.9736,587.9736,0,0,0,67.3631-32.3967,287.8859,287.8859,0,0,0,33.7035-22.0193,136.7386,136.7386,0,0,0,16.7875-15.0175c1.0218-1.0966,1.9259-2.3028,2.8844-3.4585a5.9613,5.9613,0,0,0-3.3326.7225,113.8358,113.8358,0,0,1-19.6944,7.4625,186.31,186.31,0,0,1-42.5788,6.4121,317.6255,317.6255,0,0,1-57.4244-2.5805,7.6239,7.6239,0,0,1-5.3125-2.7726c-.6008-.7442-1.3106-1.4-1.9707-2.0969Q1109.1509,807.793,1053.7,749.2875c-1.2052-1.2717-2.3636-2.5876-3.3751-3.6977-6.0651-.602-11.8109.3464-17.6893-.646-.0547-1.9807-.1436-3.7137-.1443-5.4467q-.0136-37.1916-.0063-74.3833c0-9.9178.016-19.8357-.019-29.7533-.0049-1.39.3735-2.8786-.8634-4.4767Zm140.2288,39.4261H385.4041V645.3393h85.8646Zm68.0675-24.8933h85.8646v24.8933H539.3362ZM816.87,670.2326H731.005V645.3393H816.87Zm153.9648,0H884.97V645.3393h85.8647Z" transform="translate(-16.3189 -100.32)"/><path d="M465.5121,270.9024c-.9079.0353-1.81.2078-3.0108.355-.2033,7.9254-.075,15.5724-.0973,23.2158-.0228,7.8375-.0051,15.6752-.0051,23.5127V434.5931a27.3142,27.3142,0,0,1-2.8324.3864c-2.5576.0428-5.1167-.0015-7.6746.0309-7.17.0906-5.1786-.7576-9.87,4.1867Q386.2127,498.0136,330.51,556.9307a11.9594,11.9594,0,0,1-8.2874,4.0329c-4.3012.3323-8.5861.87-12.8826,1.2717-21.89,2.0462-43.7491,2-65.5315-1.2427-13.9775-2.0806-27.55-5.5986-40.2231-12.0759-.6565-.3356-1.36-.5783-3.0875-1.3026,1.1906,1.6344,1.6569,2.3972,2.24,3.056a120.4728,120.4728,0,0,0,14.3185,13.4538A247.6931,247.6931,0,0,0,245.83,584.0247c23.1961,13.9584,47.558,25.5682,72.478,36.07a33.7062,33.7062,0,0,0,13.4408,2.7132q346.5751-.1155,693.15-.0673c.9593,0,1.9222-.0536,2.8773.01a15.3923,15.3923,0,0,0,6.9778-1.3678,595.5265,595.5265,0,0,0,64.8248-31.0384,290.3752,290.3752,0,0,0,36.9256-24.0779,127.6219,127.6219,0,0,0,17.5837-16.2594c.4495-.5122,1.3819-1.0133.6244-2.0357-.5838.2553-1.174.474-1.7283.7619a116.1735,116.1735,0,0,1-26.5373,9.5527c-15.7918,3.8106-31.8682,5.0805-48.0366,5.3049a349.747,349.747,0,0,1-43.5429-2.5,14.8794,14.8794,0,0,1-9.87-4.9306q-54.6549-57.9279-109.5258-115.6521c-1.1-1.1605-2.2716-2.2619-3.2873-3.4922a5.3139,5.3139,0,0,0-4.5975-2.0358c-3.5148.1-7.0351.0544-10.552-.0047a20.4563,20.4563,0,0,1-2.9929-.5228c-.0327-2.0684-.0888-3.9686-.089-5.8688q-.0072-75.0969-.0045-150.1938c0-1.5994.0343-3.2008-.0354-4.7974a15.4522,15.4522,0,0,0-.41-2.2337,32.2393,32.2393,0,0,0-6.8259-.461ZM564.2556,402.613H485.4V290.8052h78.8556Zm100.7453-.0256H586.1453V290.78h78.8556Zm105.0847.107H691.23V290.8865h78.8557Zm21.8288-111.8079H870.77V402.6944H791.9144Z" transform="translate(-16.3189 -100.32)"/><path d="M192.8729,940.07c-1.4389,0-2.88-.04-4.3163.0224-.9007.04-1.7945.2372-2.593.35-.6133,4.2564-.9919,127.8875-.4593,139.8888a16.4924,16.4924,0,0,0,.3488,2.127,5.9626,5.9626,0,0,0,1.0939.4967,7.8056,7.8056,0,0,0,1.4279.1131q490.46-.0523,980.9209-.1175a1.0032,1.0032,0,0,0,.4544-.1147,5.341,5.341,0,0,0,.6469-.57c.063-.629.2165-1.5516.24-2.4775.5853-23.7467.2617-134.2508-.4859-139.7187ZM321.5238,982.131H235.6592V957.2376h85.8646Zm149.3746-.7154-.0394.01v.7051H384.9944V957.2376H470.859v.3362l.0394.002Zm154.0865.7154H539.12V957.2376h85.8646Zm192.1133,0H731.2336V957.2376h85.8646Zm153.9972,0H885.2308V957.2376h85.8646Zm63.6125-24.8934h85.8646V982.131h-85.8646Z" transform="translate(-16.3189 -100.32)"/><path d="M789.3351,1155.2194c-73.5557,0-146.5987.0007-219.6418-.008-.7679,0-1.5358-.1223-1.9478-.1572a4.6985,4.6985,0,0,1-.6832-.6119,1.0381,1.0381,0,0,1-.1152-.4618c-.0635-1.1145-.1665-2.23-.1652-3.3444q.0354-29.7421.1077-59.4843a4.8726,4.8726,0,0,1,.4211-1.1816c.7465-.1074,1.647-.3042,2.5553-.3517,1.2756-.0666,2.557-.025,3.8359-.025q104.5517-.0007,209.1033.0129c2.0495.0005,4.1371-.3,6.38.4449a19.6462,19.6462,0,0,1,.37,2.7157q.0336,29.5052.01,59.01C789.5642,1152.7112,789.4439,1153.6452,789.3351,1155.2194Z" transform="translate(-16.3189 -100.32)"/><path d="M1169.5433,1089.9778c4.8528,5.1536,50.0694,61.2872,51.9765,64.5329-.4229.9718-1.3289.65-2.0542.6926-1.1155.0658-2.2376.0225-3.3568.0225q-79.6284,0-159.2568-.0107c-1.8766,0-3.7938.2373-5.6431-.3443a6.3369,6.3369,0,0,1-.4337-1.5081q-.0234-30.9493.0115-61.8988a6.1143,6.1143,0,0,1,.4624-1.5149,21.4583,21.4583,0,0,1,2.2721-.33C1064.65,1089.1556,1165.7337,1089.4827,1169.5433,1089.9778Z" transform="translate(-16.3189 -100.32)"/><path d="M305.2912,1155.0542H135.0149c-.78-1.4169.4267-2.0981,1.0592-2.8839q12.1757-15.13,24.414-30.2092,11.6136-14.3514,23.2306-28.7c.9036-1.1154,1.8355-2.2078,2.6373-3.17.3426-.1332.4886-.196.6388-.2467a1.8488,1.8488,0,0,1,.4587-.1285c.7966-.049,1.5941-.1153,2.3914-.1153q56.3366-.0041,112.6733.0089c.477,0,.9544.0643,1.4309.1078a1.5152,1.5152,0,0,1,.4682.0935,5.72,5.72,0,0,1,.71.5376c.6261,5.0856.1852,10.4881.2637,15.8671.0793,5.4345.0174,10.8712.0174,16.3069,0,5.2759.0173,10.5518-.0048,15.8276C305.3811,1143.7584,305.5076,1149.172,305.2912,1155.0542Z" transform="translate(-16.3189 -100.32)"/><path d="M1280.0537,1227.0584H1118.0686c-1.4112-1.4535-.9063-3.133-.9115-4.6574-.0412-12.3125-.0234-24.6253-.0234-36.938,0-5.7566-.0163-11.5133.0126-17.27.0069-1.4.1619-2.7988.2541-4.2833a19.8576,19.8576,0,0,1,2.6231-.3836q54.6457-.025,109.357-.0146,25.0707,31.01,49.8533,61.6885A10.6153,10.6153,0,0,1,1280.0537,1227.0584Z" transform="translate(-16.3189 -100.32)"/><path d="M238.6047,1164.0205c.5065,4.2689.5349,58.13.0292,62.737a26.2863,26.2863,0,0,1-2.6132.4281c-1.1135.0786-2.2365.0254-3.3554.0254q-75.5248.0007-151.05-.0137c-1.69-.0007-3.4316.2552-5.0661-.2562.0351-.5771-.0632-.9649.0875-1.1522,16.6306-20.6677,33.28-41.3205,49.5337-61.485.7256-.4088.8565-.5014,1.0014-.559a1.5534,1.5534,0,0,1,.4636-.117c.7961-.05,1.593-.1222,2.39-.1222q53.2268,0,106.4536.0207a8.8631,8.8631,0,0,1,1.42.1836A4.4629,4.4629,0,0,1,238.6047,1164.0205Z" transform="translate(-16.3189 -100.32)"/><path d="M431.8,1154.88c-4.8636.5639-114.6862.4586-118.55-.1452a13.3515,13.3515,0,0,1-.3416-2.1725q-.0272-30.1953-.0016-60.3906a20.326,20.326,0,0,1,.2539-2.1476c.9735-.1477,1.8661-.3467,2.7677-.4037,1.1137-.0706,2.2349-.0263,3.3528-.0263q53.4228-.0006,106.8457.015c1.8932.0011,3.8308-.3229,5.834.4733a7.1083,7.1083,0,0,1,.4292,1.7334q.0006,30.9114-.073,61.8227A3.5749,3.5749,0,0,1,431.8,1154.88Z" transform="translate(-16.3189 -100.32)"/><path d="M440.3338,1155.2261c-.8094-4.9152-1.1191-44.2716-.5729-62.3716a27.6847,27.6847,0,0,1,.3878-2.8683,17.7324,17.7324,0,0,1,2.4728-.3646q57.954-.025,116.0574-.0146a12.2635,12.2635,0,0,1,.5818,2.4836q.0388,30.435.0072,60.87a13.9893,13.9893,0,0,1-.2349,1.6874,20.3851,20.3851,0,0,1-2.58.5463c-1.1093.1-2.2338.0314-3.3518.0314q-53.6625.0008-107.325.0006Z" transform="translate(-16.3189 -100.32)"/><path d="M924.08,1154.6542V1090.09a26.8388,26.8388,0,0,1,2.795-.4662c1.2736-.0792,2.5555-.03,3.8338-.03q52.9722-.0009,105.9442-.0006h5.49c1.4983,1.3833,1.0785,2.907,1.083,4.2816.0364,11.1893.0213,22.3787.0217,33.5682,0,7.5129.0114,15.0259-.01,22.5388-.0044,1.5611-.1307,3.1221-.1881,4.3995a6.7885,6.7885,0,0,1-.6739.5741,1.0182,1.0182,0,0,1-.4392.1407c-1.2756.0512-2.5517.1255-3.8276.1248q-56.3255-.0336-112.6509-.094A6.4212,6.4212,0,0,1,924.08,1154.6542Z" transform="translate(-16.3189 -100.32)"/><path d="M797.0486,1090.1828c4.5673-.7518,64.7073-1.01,114.5964-.58,1.4.0121,2.7982.1616,4.4318.2613.1175,1.1392.2746,2.0547.2972,2.9736.4954,20.1628.2328,57.2954-.4729,62.0928-1.3058.0946-2.69.278-4.0751.2816q-14.8608.0376-29.7218.0138H797.8106c-1.129-1.9-.7371-3.6947-.7407-5.3851q-.0528-24.6966-.0213-49.3934Z" transform="translate(-16.3189 -100.32)"/><path d="M367.6358,1226.8574c-5.171.5726-116.8215.46-120.7975-.1378-.6856-5.1388-.2184-10.3831-.3033-15.6016-.0858-5.2762-.0189-10.5551-.0189-15.8327,0-5.1178-.0215-10.2357.006-15.3534.0281-5.2469-.1277-10.5.1294-16.0205,1.1346-.1558,2.0327-.3368,2.9383-.389,1.1156-.0642,2.2374-.024,3.3565-.024q54.4378,0,108.8755.0035c1.899,0,3.798.0569,5.7992.0888a19.8787,19.8787,0,0,1,.502,2.5987C368.627,1177.0808,368.2776,1222.7746,367.6358,1226.8574Z" transform="translate(-16.3189 -100.32)"/><path d="M1109.5328,1226.7831c-4.2863.5636-116.4336.5743-120.93.0262a17.3443,17.3443,0,0,1-.3852-2.6232q-.0355-28.7875-.0118-57.5749c0-.78.104-1.56.1791-2.6133.9843-.1738,1.8706-.3948,2.7692-.4714.9527-.0809,1.9169-.0278,2.8762-.0278q54.9174-.0009,109.8346.0038c1.74,0,3.48.066,5.3684.1042a12.4815,12.4815,0,0,1,.5559,2.469q.043,29.2671.0151,58.5341A19.6127,19.6127,0,0,1,1109.5328,1226.7831Z" transform="translate(-16.3189 -100.32)"/><path d="M495.0837,1226.7052c-5.2635.7891-80.3463,1.0853-115.7954.4948-1.0868-.018-2.1712-.1846-3.4561-.3-.1362-1.24-.3383-2.318-.3612-3.3995-.5251-24.8482-.2557-55.2456.5412-59.5472a9.83,9.83,0,0,1,1.7095-.4062c5.734-.38,113.8287-.0593,117.2008.3563a10.6289,10.6289,0,0,1,.4216,2.1341q.0282,29.4991-.0068,58.9982A12.6337,12.6337,0,0,1,495.0837,1226.7052Z" transform="translate(-16.3189 -100.32)"/><path d="M622.3149,1164.0006c.5753,6.466.4169,58.92-.2023,62.9017-1.141.0981-2.3646.2911-3.5887.2943q-14.3737.0381-28.7479.0148H503.42a13.8,13.8,0,0,1-.5258-2.5207q-.034-29.4764-.0016-58.9529a12.0052,12.0052,0,0,1,.2823-1.69,21.8737,21.8737,0,0,1,2.59-.5149c1.11-.0946,2.234-.0341,3.3519-.0342q53.663-.0009,107.3257.0125C618.3212,1163.5121,620.2462,1163.2322,622.3149,1164.0006Z" transform="translate(-16.3189 -100.32)"/><path d="M860.9348,1164.0006c5.1651-.7776,85.7143-1.0786,115.9837-.4907,1.0792.021,2.1558.1732,3.4884.2858.1,1.3037.2388,2.3809.2566,3.46.4585,27.762.2346,55.0579-.4737,59.3675a1.8526,1.8526,0,0,1-.3439.331.9586.9586,0,0,1-.4546.1154q-58.0311.07-116.0623.12a18.3939,18.3939,0,0,1-2.1049-.26,16.6415,16.6415,0,0,1-.4543-2.7288q-.04-28.7879-.014-57.5758C860.7562,1165.8467,860.8591,1165.0684,860.9348,1164.0006Z" transform="translate(-16.3189 -100.32)"/><path d="M734.139,1227.1888a18.6283,18.6283,0,0,1-.377-2.3839q-.0111-29.7234.0275-59.447a3.7573,3.7573,0,0,1,.3208-1.1331,3.1719,3.1719,0,0,1,.5011-.4875,1.0294,1.0294,0,0,1,.4659-.0945q57.5063-.0721,115.0126-.1287c.7873-.0007,1.5746.1136,2.3488.1732,1.2666,1.4283.8069,3.0959.8109,4.6276q.0537,20.3754.0212,40.7507c0,4.6345.0181,9.269-.014,13.9032-.0086,1.2413-.1712,2.4815-.273,3.8541a12.7952,12.7952,0,0,1-2.0168.3522C812.165,1227.19,773.3629,1227.1888,734.139,1227.1888Z" transform="translate(-16.3189 -100.32)"/><path d="M630.486,1227.0436c-.5357-4.8868-.4985-58.8726.0159-63.0877a17.0727,17.0727,0,0,1,2.6106-.4268c3.3554-.0559,6.7123-.0306,10.0686-.0306q38.3582-.001,76.7163.0036c1.896,0,3.792.0577,5.8411.091a15.0988,15.0988,0,0,1,.4792,2.5354q.0353,29.2579.0087,58.5158a20.4024,20.4024,0,0,1-.2571,2.1617,36.2986,36.2986,0,0,1-3.7053.3865c-8.79.0334-17.5808.0188-26.3713.0189q-29.9672,0-59.9345-.0068C634.2289,1227.2036,632.5,1227.1055,630.486,1227.0436Z" transform="translate(-16.3189 -100.32)"/></svg>