<svg id="katana_logo_Image" data-name="katana_logo Image" xmlns="http://www.w3.org/2000/svg" width="720" height="423.6" viewBox="0 0 720 423.6"><defs><style>.cls-1{fill:#fff;}</style></defs><path d="M575.3657,264.1454l-33.0846,2.1584-3.0045-5.8353-4.4618.5523c.2976,4.3258.5861,8.5181.8937,12.99-4.617.5263-9.107.8122-13.9309.99-.5073-6.5822-1.0072-13.0681-1.5178-19.6928-.9993,0-1.8582-.0491-2.71.0075-9.0134.5986-18.0232,1.2563-27.0391,1.8135q-15.2033.9395-30.4157,1.7283-12.9393.6552-25.8893,1.0937c-14.7092.4855-29.4188,1.0329-44.1328,1.2792-25.4335.4258-50.8691.8915-76.3086.3209-11.7555-.2637-23.5158-.3344-35.2691-.6644-10.6318-.2984-21.2581-.8057-31.8848-1.2684-7.4295-.3234-14.86-.6582-22.2819-1.113-8.2182-.5034-16.4294-1.1254-24.64-1.7408-6.6151-.4959-13.229-1.016-19.8363-1.6053-5.65-.5039-11.2941-1.09-16.9346-1.6967-6.1953-.6665-12.3889-1.3542-18.5733-2.1133-6.6583-.8173-13.3162-1.6514-19.9537-2.6184-7.7413-1.1278-15.496-2.2181-23.1811-3.6634C87.9579,242.575,74.753,239.8356,61.54,237.144a4.6291,4.6291,0,0,1-2.4329-1.2865c-4.9063-5.5875-9.7291-11.2482-14.5712-16.8919a2.85,2.85,0,0,1-.2574-.6022,4.5589,4.5589,0,0,1,1.0921.0908,213.8819,213.8819,0,0,0,33.6193,8.47c9.5032,1.7208,19.037,3.31,28.6,4.6509,8.857,1.2423,17.76,2.1841,26.6624,3.0666,10.3387,1.0249,20.69,1.9578,31.0509,2.7135,9.4088.6863,18.8357,1.15,28.26,1.5861q15.5786.72,31.168,1.198c7.195.2288,14.3954.2863,21.593.4391a2.0592,2.0592,0,0,0,2.0318-.9286c5.04-7.6769,9.8448-15.4942,14.3784-23.5945a16.3426,16.3426,0,0,0-7.3144-4.4993c-5.602-1.7929-11.193-1.29-16.7558.2782-7.2364,2.04-13.71,5.6388-19.95,9.72-.73.4777-1.4587.9587-2.2421,1.4738l-6.4364-6.9188c1.2626-3.3279,2.6905-7.126,4.1435-10.9146,3.8027-9.9154,7.6454-19.8156,11.3956-29.7506a7.5919,7.5919,0,0,1,2.8448-3.7078c11.6038-8.13,23.6761-9.2806,36.2768-2.4333a50.7248,50.7248,0,0,1,11.8564,9.278c.4483.4561.8863.9228,1.346,1.3671a3.15,3.15,0,0,0,.6992.2977c3.4412-13.1255,6.5807-26.3331,13.1911-38.1413-2.4525-2.8244-4.8864-5.3741-7.0331-8.146-7.1581-9.2426-11.1824-19.8245-13.0581-31.2875-1.7686-10.8084-1.57-21.6614-.673-32.52A101.7442,101.7442,0,0,0,269.04,40.3568c-1.3009-6.0829-2.99-12.083-4.5027-18.1207-.1512-.6032-.2915-1.2092-.5523-2.2946l74.7447,58.39-.19.3527q-1.9092-.6013-3.8186-1.2023a42.0751,42.0751,0,0,0-15.0773-2.2612c-6.8485.3936-11.4977,4.0536-13.43,10.6578a35.7547,35.7547,0,0,0-.8046,13.5639,89.2894,89.2894,0,0,0,4.1543,18.9164c.0929.2888.2359.5614.4325,1.0217a6.5085,6.5085,0,0,0,.854-.4951c10.2541-8.4759,21.9751-14.1808,34.61-18.0621a8.4308,8.4308,0,0,0,5.1987-4.0762c2.76-4.6784,5.74-9.2276,8.6388-13.8242.2858-.4532.6308-.8693,1.0719-1.4712.5493.79,1.0191,1.4132,1.4338,2.0709,3.0689,4.8672,6.1619,9.72,9.1627,14.6288a4.7752,4.7752,0,0,0,2.9324,2.1957c12.0815,3.6914,23.44,8.8616,33.5234,16.593,1.0662.8174,2.1308,1.6367,3.3211,2.5511a91.0711,91.0711,0,0,0,3.9833-15.714c.7645-4.7442,1.3293-9.5195.491-14.31a27.84,27.84,0,0,0-1.5263-5.7621c-2.15-5.2365-6.2827-7.8926-11.8265-8.4205-5.9314-.5648-11.5912.7765-17.1692,2.6025q-1.1336.3711-2.2728.7248c-.0576.0177-.1425-.0532-.5206-.2087L456.47,20.1446a10.9262,10.9262,0,0,1-.194,1.7731,162.7023,162.7023,0,0,0-6.2681,28.9914,85.7519,85.7519,0,0,0-.4513,16.7459c.795,10.127,1.2609,20.277.1166,30.411-1.8687,16.5485-7.8817,31.2005-19.9856,43.0129-.2251.22-.4131.4776-.799.9287,6.6279,11.9093,9.8109,25.1029,13.3011,38.5354,1.1831-1.1793,2.1213-2.139,3.0856-3.0718,5.0523-4.8875,10.6259-8.987,17.4383-11.0794,11.3069-3.4728,21.4372-.9113,30.6094,6.1954A4.5651,4.5651,0,0,1,494.72,174.46q8.0148,20.7847,15.9474,41.6011a1.799,1.799,0,0,1,.0369.4916l-6.4118,6.3839c-2.9766-1.8122-5.9247-3.7154-8.9739-5.44-5.59-3.1615-11.444-5.7232-17.848-6.6791-5.9961-.8951-11.8175-.4519-17.0183,3.1242-.8426.5794-1.6128,1.2639-2.6106,2.0533,3.5478,5.9378,7.0174,11.7445,10.6169,17.7687l49.9827-3.6467c-.42-6.229-.8259-12.2381-1.2454-18.4529l13.9074-1.05c.206,2.497.3936,4.77.6047,7.329a433.2965,433.2965,0,0,1,75.3407-8.559c.2,1.7934.4,3.5051.58,5.2189.1817,1.7323.3435,3.4667.54,5.46l89.6155-10.0739c.4249,9.05.8359,17.8034,1.2606,26.85l-88.5626,9.096v7.423l-34.2243,3.4475C575.9745,259.1327,575.69,261.4768,575.3657,264.1454ZM360.29,215.5351a23.62,23.62,0,0,0,23.7639-23.4421,23.858,23.858,0,0,0-23.62-23.8883c-11.552-.0512-23.7879,9.0564-23.7577,23.7449A23.4043,23.4043,0,0,0,360.29,215.5351ZM301.157,200.4622c-.0967.1743-.2559.4247-.38.6912a131.1352,131.1352,0,0,0-7.5439,19.6443c-1.467,5.1639-2.6218,10.3811-2.3682,15.7953.0649,1.3854.3773,2.7592.5911,4.243,21.2973-.4005,42.2636-.5549,63.3257-1.4441l-24.826-12.5025c-1.9777,5.8862-5.5459,8.9418-10.6787,8.9975a10.88,10.88,0,0,1-10.1687-7.0741,10.5451,10.5451,0,0,1-.2488-6.3671,10.9756,10.9756,0,0,1,5.83-6.9165Zm104.9184,15.0224c5.213,3.4976,7.0825,7.4615,5.8146,12.3771a10.7571,10.7571,0,0,1-9.9372,8.0132c-4.9864.312-8.4457-2.4766-11.279-8.9853l-23.4724,11.9488c6.28.4393,60.2905-2.3249,62.6542-3.2009.3659-7.9452-6.4689-30.4979-10.4676-34.9863Z"/><path class="cls-1" d="M360.29,215.5351A23.4043,23.4043,0,0,1,336.6755,191.95c-.03-14.6885,12.2057-23.7961,23.7577-23.7449a23.858,23.858,0,0,1,23.62,23.8883A23.62,23.62,0,0,1,360.29,215.5351Z"/><path class="cls-1" d="M301.157,200.4622l13.532,15.067a10.9756,10.9756,0,0,0-5.83,6.9165,10.5451,10.5451,0,0,0,.2488,6.3671,10.88,10.88,0,0,0,10.1687,7.0741c5.1328-.0557,8.701-3.1113,10.6787-8.9975l24.826,12.5025c-21.0621.8892-42.0284,1.0436-63.3257,1.4441-.2138-1.4838-.5262-2.8576-.5911-4.243-.2536-5.4142.9012-10.6314,2.3682-15.7953a131.1352,131.1352,0,0,1,7.5439-19.6443C300.9011,200.8869,301.06,200.6365,301.157,200.4622Z"/><path class="cls-1" d="M406.0754,215.4846l13.3126-14.8334c3.9987,4.4884,10.8335,27.0411,10.4676,34.9863-2.3637.876-56.3742,3.64-62.6542,3.2009L390.6738,226.89c2.8333,6.5087,6.2926,9.2973,11.279,8.9853a10.7571,10.7571,0,0,0,9.9372-8.0132C413.1579,222.9461,411.2884,218.9822,406.0754,215.4846Z"/><g id="Katana"><path d="M70.118,342.1586H538.4271l.0025.1451c-3.7048.1888-7.4085.4032-11.1146.5613-8.9478.3817-17.8979.7087-26.8447,1.1115-8.467.3812-16.93.8454-25.3965,1.246-8.227.3893-16.4561.7309-24.6831,1.118-8.7056.41-17.4095.8546-26.1147,1.2729-7.907.38-15.8152.734-23.7219,1.1193q-12.8178.6244-25.6336,1.2838c-7.5069.3739-15.0146.7315-22.521,1.1128q-12.4566.6327-24.9117,1.2939c-7.1866.3711-14.3741.7249-21.56,1.1042-7.9839.4212-15.9665.8669-23.95,1.2942-7.0259.3761-14.0532.7274-21.0784,1.1156-7.3439.4059-14.6858.8467-22.029,1.2647-6.7051.3816-13.4115.7395-20.1159,1.1327-6.943.4072-13.8841.8468-20.8263,1.2678-6.2244.3775-12.45.7353-18.6735,1.1267-6.4621.4064-12.9223.8423-19.3833,1.2658-5.7433.3764-11.4875.7386-17.2295,1.1341-5.8209.401-11.64.8308-17.4592,1.2558-5.1018.3726-10.2041.74-15.3039,1.1392-5.1785.4054-10.3542.8469-15.5309,1.2739a7.5781,7.5781,0,0,0-.9537.1016c-2.17.4624-3.6614-.2788-5.0765-2.0754-5.49-6.97-11.1545-13.8036-16.7475-20.6931C71.1306,343.59,70.7413,343.0087,70.118,342.1586Z"/><path d="M82.1784,333.933l-2.762-.9839c1.5325-8.4168,3.1629-16.7518,3.452-25.5392l-8.011,2.9731-1.6463-2.1161c.6984-.5153,1.2556-.944,1.8306-1.3472,1.4391-1.0093,2.8971-1.9921,4.3282-3.0124,4.023-2.8683,3.96-2.8687,3.5385-7.8267a56.0965,56.0965,0,0,0-4.845-18.4375c-1.8379-4.073-3.8573-8.0641-5.7969-12.0912-.2366-.4912-.4812-.9787-.7847-1.595.7341-.3316,1.3577-.6622,2.0144-.9027,9.1364-3.3448,18.2925-6.6367,27.4022-10.0524a3.6682,3.6682,0,0,1,4.0669.5878,183.7764,183.7764,0,0,1,2.97,24.5818,17.8594,17.8594,0,0,0,1.1677-1.5407,75.7875,75.7875,0,0,0,7.5084-17.8238c.8622-2.8936,1.6109-3.3593,4.4382-2.615q10.0633,2.6493,20.1167,5.3365c2.638.7063,3.0461,1.6875,1.5537,3.9345-4.5991,6.9248-9.1521,13.9053-15.3793,19.534-2.5338,2.29-5.3063,4.3167-8.067,6.5413,1.8088.8119,3.6358,1.7186,5.5258,2.4658,9.6174,3.8022,16.9805,10.3517,22.835,18.713,2.9773,4.2522,5.8553,8.5751,8.7112,12.91,1.0883,1.6521.578,2.8922-1.357,3.3879-8.2567,2.1148-16.526,4.18-24.988,6.3135-.444-.8747-.8734-1.7038-1.288-2.54a185.6936,185.6936,0,0,0-11.5551-20.9635A83.32,83.32,0,0,0,106.83,299.5582c-.3838-.387-.8378-.7045-1.4767-1.2347a82.9413,82.9413,0,0,1-10.06,18.7994A149.1367,149.1367,0,0,1,82.1784,333.933Z"/><path d="M370.97,281.933c.2139-1.78.2139-1.78,1.4729-2.6307-.3609-.6069-.7228-1.2205-1.0894-1.8312-1.2065-2.01-.985-2.6506,1.2839-3.4862,2.3948-.8819,4.8069-1.717,7.2063-2.5867q6.299-2.2828,12.592-4.5813c.2248-.0818.4583-.1394.6851-.2159,2.3837-.8028,3.356-.3387,3.7278,2.047.5776,3.706,1.0154,7.4338,1.5072,11.153.0728.55.1172,1.1035.17,1.61l12.4627,4.1615c.1841-.3759.5164-.9858.789-1.6212a53.5519,53.5519,0,0,1,11.58-16.8953c1.553-1.549,1.5688-1.5332,3.676-.3472-.6593,3.4072-1.4314,6.8233-1.9659,10.276-1.1666,7.5363-1.6533,15.0939.1826,22.6049a14.675,14.675,0,0,0,1.4981,3.4813c1.5751,2.8675,3.1023,5.7755,4.8958,8.5051,1.7925,2.728,3.8686,5.2717,5.8543,7.87.7225.9454,1.543,1.816,2.4353,2.8567a13.6449,13.6449,0,0,1-1.3041,1.0667q-8.4355,5.2685-16.891,10.505c-2.2021,1.3621-3.1481,1.0977-4.3063-1.25a95.8884,95.8884,0,0,1-7.5865-19.3588,6.3377,6.3377,0,0,0-.5815-1.5671c-2.5038-4.4808-5.2777-8.7642-9.1527-12.22-.4169-.3719-.8441-.734-1.2861-1.0754-.1093-.0844-.2954-.07-.6824-.1486a58.7148,58.7148,0,0,1-7.2028,19.553A56.5741,56.5741,0,0,1,377.2,333.81l-2.1335-1.0464c.8373-3.5294,1.83-6.9009,2.41-10.3417.9822-5.8191,1.9093-11.662,2.4827-17.5316a35.2357,35.2357,0,0,0-4.2269-19.8806,3.6275,3.6275,0,0,0-2.0141-1.9129C372.8282,282.7684,371.9677,282.3594,370.97,281.933Z"/><path d="M494.4459,305.3244a83.1761,83.1761,0,0,1-20,10.6326c0,4.7189-.01,9.2551.0083,13.7912.0035.877.162,1.7534.1653,2.63a1.8769,1.8769,0,0,1-2.0373,2.07,4.4583,4.4583,0,0,1-.9517-.11c-6.7187-1.3405-13.4363-2.6863-20.3739-4.075.1675-4.3935,1.3726-8.5306,2.0951-12.9063l-8.5286-1.6468c.1943-.8388.297-1.4458.4764-2.0293q2.04-6.6374,4.1085-13.2659c.8141-2.6011,1.572-2.9388,4.2341-2.0116,2.0191.7033,4.0495,1.3741,6.1891,2.098,4.384-7.252,11.1681-11.7182,17.8674-16.7054-1.3547-1.0248-2.5936-1.948-3.8171-2.8912-1.5856-1.2222-1.5089-2.2439.3037-3.1694q9.8114-5.01,19.6519-9.9619c1.671-.8406,2.5879-.7194,3.5627.642,5.3842,7.52,9.8867,15.49,11.9439,24.6142,1.4088,6.2479.5039,12.406-1.1533,18.4686a119.6535,119.6535,0,0,1-7.6339,20.126,2.029,2.029,0,0,1-.11.2128c-.4075.6435-.5839,1.7275-1.6051,1.4678a2.0616,2.0616,0,0,1-1.4806-2.2c-.0014-2.078.01-4.1571-.05-6.2338a84.6406,84.6406,0,0,0-2.42-18.25C494.8146,306.3217,494.6909,306.0341,494.4459,305.3244Zm-9.45-15.35c-2.1341,2.4917-5.8861,9.6214-6.1749,11.8586l13.1265-3.1316A25.184,25.184,0,0,0,484.9958,289.9744Z"/><path d="M173.0732,317.3375l-8.6092-1.6609c1.2633-4.0988,2.43-7.9,3.6079-11.6978.4256-1.3725.8606-2.7425,1.3189-4.1044.63-1.8724,1.5266-2.31,3.4545-1.67,1.8922.6284,3.7686,1.304,5.66,1.9336a7.8274,7.8274,0,0,0,1.2364.1937c4.278-7.1783,11.144-11.5664,17.7324-16.5521-1.2143-.9272-2.2679-1.7567-3.3475-2.5509-2.3226-1.7087-2.2658-2.4551.3749-3.8022,3.8419-1.96,7.6982-3.8915,11.5495-5.8331,2.5671-1.2941,5.1263-2.6043,7.7079-3.8691,1.5252-.7472,2.47-.631,3.3652.6085,5.2757,7.3047,9.5836,15.1,11.8513,23.8976,1.5424,5.9837.8542,11.9217-.6235,17.78a112.6,112.6,0,0,1-8.1021,21.7359,17.7147,17.7147,0,0,1-1.12,1.7559c-1.7507-.5446-1.9052-1.7052-1.958-3.0635-.1767-4.5488-.2763-9.1105-.7225-13.6361-.3664-3.7165-1.1844-7.3886-1.8588-11.4187a19.6,19.6,0,0,0-1.8958.988,77.0064,77.0064,0,0,1-17.1152,9.0467,2.01,2.01,0,0,0-1.5459,2.2833c.1391,4.6318.0973,9.2724.3664,13.8956.1409,2.4221-1.041,3.1571-3.1952,2.7205q-9.8529-1.997-19.7084-3.9818c-.1408-.0286-.2571-.1782-.6333-.4525C171.5814,325.8055,172.3235,321.5931,173.0732,317.3375Zm25.0832-15.9642.2961.45,13.2866-3.0952c-1.706-3.7594-4.2333-6.3765-7.2293-9.0331Z"/><path d="M348.8052,305.2855a85.1815,85.1815,0,0,1-20.1127,10.676c-.065,2.6609-.1948,5.4275-.1813,8.1934a69.706,69.706,0,0,0,.3207,7.1793c.3066,2.8209-.892,3.4374-3.3606,2.9422-4.3-.8626-8.5956-1.7522-12.894-2.6256-2.3264-.4726-4.6548-.9353-7.2675-1.46.775-4.4,1.516-8.6061,2.2642-12.853l-8.6294-1.6612c.8427-2.701,1.5993-5.12,2.3518-7.5393.853-2.7427,1.683-5.4927,2.56-8.2278.6073-1.8948,1.54-2.355,3.4418-1.7258,1.892.6259,3.7669,1.3035,5.6564,1.9371a9.6467,9.6467,0,0,0,1.2549.2352c4.28-7.1615,11.127-11.562,17.7481-16.58-1.396-1.0536-2.6584-1.9844-3.8965-2.9465-1.4428-1.1213-1.3694-2.2035.2941-3.0531q9.9164-5.0643,19.8728-10.05c1.609-.8061,2.5252-.6129,3.5293.7772a73.072,73.072,0,0,1,11.4911,22.7606c1.85,6.5017,1.1239,12.9926-.5682,19.4027a113.0341,113.0341,0,0,1-7.8216,20.8089,19.3566,19.3566,0,0,1-1.3182,2.0366c-1.6871-.6618-1.7939-1.7576-1.8022-3.0373a107.1864,107.1864,0,0,0-1.8062-20.4892C349.6365,308.517,349.2359,307.0689,348.8052,305.2855Zm-9.6319-15.3892c-2.26,3.0738-5.6317,9.4719-6.2,11.7891a91.6813,91.6813,0,0,0,13.2428-3.1646A27.0272,27.0272,0,0,0,339.1733,289.8963Z"/><path d="M259.7039,289.8455c-2.3345-.1773-4.5739-.21-6.7683-.5415-5.1234-.7731-10.2311-1.656-15.333-2.5629-2.3157-.4117-2.6365-1.7859-1.4484-3.556,2.8926-4.3094,5.5337-8.7869,8.2965-13.1839,1.2546-1.9966,1.9458-2.1525,4.1583-1.3171,3.5786,1.3513,7.1779,2.6489,10.78,3.9376.7409.2651,1.5314.392,2.597.6566.2489-2.6562.4834-5.1575.7424-7.92l2.4752-.6211c1.4806,3.27,2.8891,6.381,4.36,9.63,10.0076.1166,19.8084-1.5856,29.6171-3.8533.4068.6058.754,1.1231,1.2525,1.8657-8.4906,5.3428-17.0371,10.3951-26.3943,13.998.6941,2.92,1.35,5.6177,1.9754,8.3224a32.8,32.8,0,0,1-.6049,16.114,95.4888,95.4888,0,0,1-9.0949,21.5735c-.9652,1.7382-1.8943,2.0179-3.771,1.1158q-8.5255-4.0983-17.009-8.2841c-1.5266-.7523-1.7015-1.7091-.6424-3.0164.905-1.117,1.8805-2.1772,2.7751-3.3021a59.4727,59.4727,0,0,0,11.95-27.3672A14.1206,14.1206,0,0,0,259.7039,289.8455Z"/><path class="cls-1" d="M484.9958,289.9744a25.184,25.184,0,0,1,6.9516,8.727l-13.1265,3.1316C479.11,299.5958,482.8617,292.4661,484.9958,289.9744Z"/><path class="cls-1" d="M198.1564,301.3733,204.51,289.695c2.996,2.6566,5.5233,5.2737,7.2293,9.0331l-13.2866,3.0952Z"/><path class="cls-1" d="M339.1733,289.8963a27.0272,27.0272,0,0,1,7.0428,8.6245,91.6813,91.6813,0,0,1-13.2428,3.1646C333.5416,299.3682,336.9129,292.97,339.1733,289.8963Z"/></g><g id="WTF"><path d="M631.6666,360.5359l1.3413,1.2749a13.047,13.047,0,0,0-.6649,10.7678c1.4119-1.8041,2.6736-3.285,3.7632-4.8831a4.1542,4.1542,0,0,0,.3729-2.0459,3.3157,3.3157,0,0,1,2.6707-3.13,1.4716,1.4716,0,0,1,1.2152.4785c.5211,1.026,1.3354,1.8488,1.4362,3.1754.2428,3.1939,1.9341,6.9508,4.4608,8.8248a18.56,18.56,0,0,0,4.7442-6.67c.5848-1.5367.8615-2.8742-.8516-3.8a5.0834,5.0834,0,0,1,2.6605-3.37c1.3772-.6744,2.0862-.24,2.2678,1.27a13.0762,13.0762,0,0,1-1.6972,7.5951c-1.7664,3.4511-4.6822,6.0334-7.1968,8.9053a10.763,10.763,0,0,1-2.7641,1.68L637.571,370.301c-1.215,1.6651-2.4738,3.2607-3.5884,4.9511-1.32,2.0012-2.65,3.9518-5.1734,5.0988-.2579-.5993-.8716-1.3212-.7133-1.7732.939-2.6818.1316-5.2794-.4913-7.7677a11.6645,11.6645,0,0,1-.2032-4.3917c.0455-.3816.1049-.7615.1723-1.2458a3.7469,3.7469,0,0,0-3.1819.7533c-.7823.4671-1.5354.6371-2.0914-.1944-.5854-.8758.0052-1.5906.6954-2.0035a19.5888,19.5888,0,0,1,3.3969-1.6335C627.9384,361.5382,629.5454,361.1521,631.6666,360.5359Z"/><path d="M525.6841,371.7223c-1.16,2.2082-2.2548,4.046-3.113,5.9881-1.0121,2.29-.9235,2.3286-3.1595,3.4955-1.7088-.9042-1.928-1.6968-1.1582-3.58a24.7191,24.7191,0,0,0,1.1717-3.5872,2.4269,2.4269,0,0,0-.63-1.9141c-1.672,2.1646-3.3583,4.3185-4.9987,6.5067a2.048,2.048,0,0,0-.2722,1.1319c-.0351,2-.3624,2.6215-2.3381,4.0719a10.67,10.67,0,0,0-1.2466-1.2936,1.8348,1.8348,0,0,1-.4535-2.7156c1.3687-2.47.947-5.2655,1.2937-7.9139.0728-.5561-.7106-1.2242-1.1947-1.9915a33.7162,33.7162,0,0,1,2.8568-3.7872,3.2122,3.2122,0,0,1,4.3605-.425c-1.7282,2.4662-2.515,5.301-3.5379,8.6293a11.3176,11.3176,0,0,0,3.1571-2.9694c.8943-1.0156,1.7608-2.0567,2.6151-3.1065a1.6223,1.6223,0,0,1,2.0871-.6688c.8472.4113,1.772.8247,1.6779,2.0615a17.4925,17.4925,0,0,0,.0733,1.8417c1.26-1.1778,2.2373-2.2079,3.3339-3.0889,1.8046-1.45,3.2071-1.0841,3.6687,1.1215a36.6033,36.6033,0,0,1,.35,5.4378c.04.7277.089,1.4549.1673,2.7257,1.2176-1.2952,1.9765-2.222,2.8715-2.9907.3208-.2755,1.3087-.3656,1.4044-.2a2.4157,2.4157,0,0,1,.2819,1.6806c-.13.4808-.6843.8518-1.0647,1.2591a9.3493,9.3493,0,0,0-1.7706,1.93c-.6213,1.2732-1.3742,1.4061-2.683,1.1407-1.29-.2614-1.6087-.9018-1.8778-2.0427a30.393,30.393,0,0,1-.9928-5.0213C526.5339,372.9752,526.111,372.5283,525.6841,371.7223Z"/><path d="M437.3284,397.0663a38.73,38.73,0,0,0,4.4429-10.1568c.8853-3.2086,1.8946-6.3828,2.8316-9.5774a5.84,5.84,0,0,0-.2682-4.0853c-1.56,1.6755-2.9655,3.2883-4.489,4.7811a11.6683,11.6683,0,0,1-2.8529,2.13c-1.6007.8009-2.6478.1087-2.5545-1.7094.1173-2.2874.4677-4.5628.7119-6.844.0327-.306.033-.6154.0463-.8822-.2118-.1162-.3712-.2746-.4613-.242-.7276.2636-1.5447.8594-2.1242-.0547-.6385-1.007.2121-1.6326.9129-2.15,1.5391-1.1354,3.1076-2.2322,4.688-3.31a1.2947,1.2947,0,0,1,2.1093.5911c-.53,3.0433-1.7652,5.93-1.4219,9.3027,1.839-.7863,2.8324-2.1369,3.9949-3.289,1.0162-1.0071,2.0111-1.9049,2.2212-3.5305.0891-.6891,1.1961-1.3765,1.9821-1.8056a8.13,8.13,0,0,1,2.3372-.4732c.7353,2.1179-.0631,4.0074-.5821,5.8416-1.679,5.9337-3.4028,11.8592-5.3188,17.72a68.3812,68.3812,0,0,1-3.43,7.8754C439.4438,398.593,438.7754,398.54,437.3284,397.0663Z"/><path d="M419.9818,366.0115c1.5839,0,2.9321.0016,4.28-.0009a12.2212,12.2212,0,0,1,1.4316-.01c3.4411.4029,4.1958,1.8591,2.2854,4.7227a34.8636,34.8636,0,0,1-10.2738,10.5341,11.4777,11.4777,0,0,0-1.627,1.411,2.2075,2.2075,0,0,1-2.9256.2489c.0622-.2931.0228-.6916.2-.854a10.5213,10.5213,0,0,0,3.1594-8.2123c-.05-3.7215.843-7.263,1.2155-10.8938.1371-1.3364.2988-2.67.4541-4.0472a13.1611,13.1611,0,0,1-2.9317.849c-1.2851.0551-1.9053-1.043-1.0372-1.8559a64.3069,64.3069,0,0,1,6.7566-5.5837c1.1039-.781,2.048.0321,1.8359,1.4147a22.1693,22.1693,0,0,1-.7514,2.255c-.5746,2.138-1.11,4.2865-1.6524,6.433a8.8133,8.8133,0,0,0-.42,3.5892Zm-.7458,11.5833c1.7686-2.1063,3.35-3.8471,4.7573-5.7193.85-1.1307.3415-1.98-1.0785-2.0179a4.8655,4.8655,0,0,0-3.6788,1.22Z"/><path d="M476.8985,361.9289,469.4626,366.8c2.397.294,4.33.489,6.2493.7783a9.95,9.95,0,0,1,5.4,2.0784c2.1247,1.86,2.3831,4.4544.3417,6.5578a10.5139,10.5139,0,0,1-3.0551,2.2594,22.8278,22.8278,0,0,1-11.07,2.45c-.239-.0158-.48-.025-.7158-.0616a2.5336,2.5336,0,0,1-2.333-2.0384c-.0834-1.3288,1.0394-1.7394,1.9127-2.1645a5.7392,5.7392,0,0,1,2.0968-.1408l.4532,1.767a1.1114,1.1114,0,0,0,.3592.1969c2.8328.3853,5.3367-.72,7.7834-1.8675,1.5139-.71,2.01-2.23,1.687-4.1029a3.4167,3.4167,0,0,0-2.9879-2.5019,61.4486,61.4486,0,0,0-7.3935-.2182,2.6555,2.6555,0,0,1-2.9966-2.034c.9735-.8261,1.9621-1.7222,3.01-2.5431q4.3265-3.39,8.6974-6.7238a10.96,10.96,0,0,1,1.417-.8787c1.8318-1.0024,3.2136-.3814,3.7069,1.6512a5.1647,5.1647,0,0,1-2.8566,5.659,1.28,1.28,0,0,1-1.89-1.0922,8.0307,8.0307,0,0,1,.1239-1.587Z"/><path d="M585.5761,373.8354c-1.4884,2.1535-2.7558,4.0168-4.055,5.8576-.9678,1.3711-1.9437,2.7729-4.3479,2.2148a15.9232,15.9232,0,0,1-.1575-3.6537,50.9391,50.9391,0,0,1,2.7832-9.2454,6.66,6.66,0,0,1,6-4.4024c1.6349-.133,3.304-.477,5.13.3416-.2162.5381-.377,1.0189-.5993,1.4694-.2353.4767-.7885.9443-.7552,1.3818.2151,2.8225-.0541,5.7381,1.3672,8.56a9.7818,9.7818,0,0,0,2.6517-2.32c.5813-.6128,1.2131-1.2478,2.0107-.5354.7534.673.3949,1.3465-.26,2.0273-1.4274,1.4832-2.7377,3.078-4.1347,4.5914-1.359,1.4721-2.3882,1.4071-3.4188-.2644a8.8885,8.8885,0,0,1-1.7175-4.6382A5.634,5.634,0,0,0,585.5761,373.8354Zm-.0222-6.2053c-.9491.3555-1.7643.4072-1.9362.7665-1.1121,2.3231-2.4732,4.58-2.6806,7.6059A16.45,16.45,0,0,0,585.5539,367.63Z"/><path d="M496.5209,373.7739c-.8177,1.1659-1.4325,2.0562-2.0614,2.9363-.9621,1.3466-1.9837,2.6539-2.8865,4.0388a3.039,3.039,0,0,1-3.2,1.2676,7.8685,7.8685,0,0,1-.2636-4.8817c.6049-2.615,1.5491-5.1067,2.3855-7.63a6.7217,6.7217,0,0,1,6.1569-4.881c1.5656-.13,3.151-.0228,5.1395-.0228a20.8475,20.8475,0,0,0-1.2319,3.7677,15.5728,15.5728,0,0,0,.1728,4.059c.1852,1.3052.5961,2.5785,1.0176,4.3181,1.21-1.212,2.0976-2.092,2.9745-2.9825.5819-.591,1.307-.88,1.82-.1356a1.7592,1.7592,0,0,1-.1453,1.6416c-1.405,1.7227-2.8948,3.3819-4.4343,4.9874-1.2968,1.3523-2.34,1.2707-3.2268-.38a34.5086,34.5086,0,0,1-1.7088-4.4043C496.8705,375.0415,496.7636,374.5918,496.5209,373.7739Zm-.2366-5.5985c-1.546-.2069-1.6341-.2459-1.9933.5652-.7974,1.8012-1.5193,3.6372-2.2185,5.4793a6.9166,6.9166,0,0,0-.0189,1.7578C494.108,373.2781,495.9145,371.1355,496.2843,368.1754Z"/><path d="M680.0132,383.13a2.1415,2.1415,0,0,1,.5611-3.03c3.3069-1.9468,3.5647-5.227,4.1819-8.4653-.6194-.5916-1.8531-.5414-1.8269-1.8659a2.44,2.44,0,0,1,1.3307-2.081,1.8608,1.8608,0,0,0,.7763-1.07c.1919-1.3745.25-2.7676.39-4.5465l-3.9921.83-1.237-1.5877a4.6128,4.6128,0,0,1,4.6322-2.4517,69.543,69.543,0,0,0,12.2628-.1687c.379-.035,1.111.2809,1.1306.4862a2.3587,2.3587,0,0,1-.3389,1.719,20.5435,20.5435,0,0,1-2.6159,1.9124l-5.378-.82c-.29,1.7162-.5364,3.1723-.7812,4.62,1.2437,1.0736,2.6513.7819,3.9662.8778.5543.04,1.1257-.08,1.6707,0,1.1528.1684,1.8092,1.3019,1.0893,2.0477a13.8534,13.8534,0,0,1-3.0548,2.1943c-.28.1628-.8643-.1746-1.3006-.3088a10.6936,10.6936,0,0,0-1.9995-.6284c-1.543-.1484-1.6943.0406-2.07,1.5917a28.1014,28.1014,0,0,1-3.227,8.6658A4.452,4.452,0,0,1,680.0132,383.13Z"/><path d="M556.4435,377.2582a6.0516,6.0516,0,0,1-3.3486,2.7783c-.5476.1749-1.3892.3288-1.7189.0484a2.2447,2.2447,0,0,1-.4186-1.7278c.1877-1.6208.5256-3.2242.8348-5.0109-1.3894.0831-1.7315.9849-2.2832,1.58-1.7838,1.9235-3.44,3.9779-5.34,5.777-1.7775,1.6835-3.3355,1.0774-3.9207-1.3326a7.9364,7.9364,0,0,1,.4517-4.4487c.5071-1.5443.75-3.1751,1.1538-4.9663a16.767,16.767,0,0,1-2.4121-.03,1.7315,1.7315,0,0,1-1.0814-.6859c-.1236-.1951.1041-.7758.3443-1.0029a6.0794,6.0794,0,0,1,1.5564-1.0594c1.4932-.7058,2.9951-1.4073,4.543-1.9756a2.0539,2.0539,0,0,1,1.7332.1206c.2765.2423.1477,1.1482-.0375,1.6763-.5214,1.4867-1.2042,2.9161-1.749,4.3955a5.9161,5.9161,0,0,0,.2745,4.7706c2.4458-2.72,4.74-5.3376,7.12-7.876a6.211,6.211,0,0,1,2.4291-1.753c1.5013-.4736,1.9614.1858,1.6247,1.7722-.3612,1.7021-.6724,3.4191-.902,5.1433C555.1107,374.8475,554.9848,376.2877,556.4435,377.2582Z"/><path d="M665.0845,380.9493l-2.2653-.9991c3.0132-5.5716,3.1725-11.6678,4.2083-17.6192-3.0157-.3294-3.9678,2.7649-6.5881,3.3354l-1.8567-2.6572a7.5225,7.5225,0,0,1,6.2452-3.38,83.8392,83.8392,0,0,0,9.1349-.81c1.5548-.19,3.07-.6882,4.6155-.9809.4068-.077,1.081-.052,1.2366.1854a1.53,1.53,0,0,1-.0784,1.2987,6.2977,6.2977,0,0,1-6.1549,2.6616c-1.7266-.4334-1.7-.3151-2.4271,1.2479-1.8425,3.959-2.1055,8.2741-3.0234,12.442a13.0434,13.0434,0,0,1-1.018,3.3944C666.6977,379.8379,665.7764,380.3348,665.0845,380.9493Z"/><path d="M604.85,376.98a20.3282,20.3282,0,0,1,2.19-1.7473,1.4555,1.4555,0,0,1,1.3022-.0177,1.3313,1.3313,0,0,1,.3434,1.2172,3.6573,3.6573,0,0,1-1.1109,1.76c-1.9258,1.3352-3.9481,2.5313-6.2077,3.952-1.84-3.67-.0142-7.1409-.23-10.6942-.3529.3153-.7145.5908-1.018.92-.5141.5572-1.1584.8045-1.591.1237a1.85,1.85,0,0,1-.077-1.6864,17.5913,17.5913,0,0,1,2.7173-2.6465,13.5118,13.5118,0,0,1,2.6073-1.6532,2.5879,2.5879,0,0,1,1.7445-.2183c.7731.25.5092.9713.3994,1.6269-.4331,2.5832-.8,5.1776-1.1719,7.7707A7.6453,7.6453,0,0,0,604.85,376.98Z"/><path d="M565.0733,370.5666c-1.0829-.1418-1.714-.2085-2.3372-.3194-.1264-.0224-.2231-.2114-.3361-.3263.4862-2.6094,3.11-4.3644,6.7018-4.3653v2.3762c1.081-.5345,2.0211-1.06,3.0107-1.4653a4.33,4.33,0,0,1,1.8271-.3529,1.43,1.43,0,0,1,1.0845.7178,1.3809,1.3809,0,0,1-.4686,1.1963,7.1174,7.1174,0,0,1-2.2536,1.2061,6.6958,6.6958,0,0,0-4.37,4.7805c-.2062,1.4036-.3749,2.8149-.6449,4.2063a3.1915,3.1915,0,0,1-2.7094,2.64c-1.13.1058-1.71-.45-1.4759-1.534a11.51,11.51,0,0,1,.7992-2.4892,3.039,3.039,0,0,0,.2691-2.4926,1.8228,1.8228,0,0,1,.4959-1.9494C565.0022,372.0288,564.9315,371.2894,565.0733,370.5666Z"/><path d="M607.6236,356.9552c.64,1.6014-.0222,3.8718-1.4272,4.3278a2.15,2.15,0,0,1-1.86-.4583,2.27,2.27,0,0,1-.3582-1.9024C604.389,357.5986,605.4166,357.143,607.6236,356.9552Z"/><path class="cls-1" d="M419.236,377.5948v-6.517a4.8655,4.8655,0,0,1,3.6788-1.22c1.42.0377,1.9282.8872,1.0785,2.0179C422.5864,373.7477,421.0046,375.4885,419.236,377.5948Z"/><path class="cls-1" d="M585.5539,367.63a16.45,16.45,0,0,1-4.6168,8.3724c.2074-3.0259,1.5685-5.2828,2.6806-7.6059C583.79,368.0373,584.6048,367.9856,585.5539,367.63Z"/><path class="cls-1" d="M496.2843,368.1754c-.37,2.96-2.1763,5.1027-4.2307,7.8023a6.9166,6.9166,0,0,1,.0189-1.7578c.6992-1.8421,1.4211-3.6781,2.2185-5.4793C494.65,367.93,494.7383,367.9685,496.2843,368.1754Z"/><path class="cls-1" d="M0,0H720V423.6H0ZM575.3657,264.1454c.3241-2.6686.6088-5.0127.8915-7.3409l34.2243-3.4475v-7.423l88.5626-9.096c-.4247-9.0462-.8357-17.7994-1.2606-26.85L608.168,220.0623c-.1961-1.993-.3579-3.7274-.54-5.46-.18-1.7138-.38-3.4255-.58-5.2189a433.2965,433.2965,0,0,0-75.3407,8.559c-.2111-2.5585-.3987-4.832-.6047-7.329l-13.9074,1.05c.42,6.2148.825,12.2239,1.2454,18.4529l-49.9827,3.6467c-3.5995-6.0242-7.0691-11.8309-10.6169-17.7687.9978-.7894,1.768-1.4739,2.6106-2.0533,5.2008-3.5761,11.0222-4.0193,17.0183-3.1242,6.404.9559,12.258,3.5176,17.848,6.6791,3.0492,1.7246,5.9973,3.6278,8.9739,5.44l6.4118-6.3839a1.799,1.799,0,0,0-.0369-.4916Q502.712,195.2534,494.72,174.46a4.5651,4.5651,0,0,0-1.3964-1.8728c-9.1722-7.1067-19.3025-9.6682-30.6094-6.1954-6.8124,2.0924-12.386,6.1919-17.4383,11.0794-.9643.9328-1.9025,1.8925-3.0856,3.0718-3.49-13.4325-6.6732-26.6261-13.3011-38.5354.3859-.4511.5739-.7089.799-.9287,12.1039-11.8124,18.1169-26.4644,19.9856-43.0129,1.1443-10.134.6784-20.284-.1166-30.411a85.7519,85.7519,0,0,1,.4513-16.7459,162.7023,162.7023,0,0,1,6.2681-28.9914,10.9262,10.9262,0,0,0,.194-1.7731L381.9019,78.4035c.3781.1555.463.2264.5206.2087q1.14-.3513,2.2728-.7248c5.578-1.826,11.2378-3.1673,17.1692-2.6025,5.5438.5279,9.6765,3.184,11.8265,8.4205a27.84,27.84,0,0,1,1.5263,5.7621c.8383,4.79.2735,9.5657-.491,14.31a91.0711,91.0711,0,0,1-3.9833,15.714c-1.19-.9144-2.2549-1.7337-3.3211-2.5511-10.0837-7.7314-21.4419-12.9016-33.5234-16.593a4.7752,4.7752,0,0,1-2.9324-2.1957c-3.0008-4.909-6.0938-9.7616-9.1627-14.6288-.4147-.6577-.8845-1.2808-1.4338-2.0709-.4411.6019-.7861,1.018-1.0719,1.4712-2.8987,4.5966-5.8784,9.1458-8.6388,13.8242a8.4308,8.4308,0,0,1-5.1987,4.0762c-12.6353,3.8813-24.3563,9.5862-34.61,18.0621a6.5085,6.5085,0,0,1-.854.4951c-.1966-.46-.34-.7329-.4325-1.0217a89.2894,89.2894,0,0,1-4.1543-18.9164,35.7547,35.7547,0,0,1,.8046-13.5639c1.9326-6.6042,6.5818-10.2642,13.43-10.6578a42.0751,42.0751,0,0,1,15.0773,2.2612q1.91.5979,3.8186,1.2023l.19-.3527-74.7447-58.39c.2608,1.0854.4011,1.6914.5523,2.2946,1.5131,6.0377,3.2018,12.0378,4.5027,18.1207a101.7442,101.7442,0,0,1,1.9854,29.7941c-.8972,10.8586-1.0956,21.7116.673,32.52,1.8757,11.463,5.9,22.0449,13.0581,31.2875,2.1467,2.7719,4.5806,5.3216,7.0331,8.146-6.61,11.8082-9.75,25.0158-13.1911,38.1413a3.15,3.15,0,0,1-.6992-.2977c-.46-.4443-.8977-.911-1.346-1.3671a50.7248,50.7248,0,0,0-11.8564-9.278c-12.6007-6.8473-24.673-5.6965-36.2768,2.4333a7.5919,7.5919,0,0,0-2.8448,3.7078c-3.75,9.935-7.5929,19.8352-11.3956,29.7506-1.453,3.7886-2.8809,7.5867-4.1435,10.9146l6.4364,6.9188c.7834-.5151,1.5117-.9961,2.2421-1.4738,6.24-4.0813,12.7135-7.68,19.95-9.72,5.5628-1.568,11.1538-2.0711,16.7558-.2782a16.3426,16.3426,0,0,1,7.3144,4.4993c-4.5336,8.1-9.3382,15.9176-14.3784,23.5945a2.0592,2.0592,0,0,1-2.0318.9286c-7.1976-.1528-14.398-.21-21.593-.4391q-15.5874-.4958-31.168-1.198c-9.4248-.4357-18.8517-.9-28.26-1.5861-10.3614-.7557-20.7122-1.6886-31.0509-2.7135-8.902-.8825-17.8054-1.8243-26.6624-3.0666-9.5631-1.3413-19.0969-2.93-28.6-4.6509a213.8819,213.8819,0,0,1-33.6193-8.47,4.5589,4.5589,0,0,0-1.0921-.0908,2.85,2.85,0,0,0,.2574.6022c4.8421,5.6437,9.6649,11.3044,14.5712,16.8919A4.6291,4.6291,0,0,0,61.54,237.144c13.213,2.6916,26.4179,5.431,39.6691,7.9232,7.6851,1.4453,15.44,2.5356,23.1811,3.6634,6.6375.967,13.2954,1.8011,19.9537,2.6184,6.1844.7591,12.378,1.4468,18.5733,2.1133,5.6405.6067,11.2842,1.1928,16.9346,1.6967,6.6073.5893,13.2212,1.1094,19.8363,1.6053,8.2109.6154,16.4221,1.2374,24.64,1.7408,7.4222.4548,14.8524.79,22.2819,1.113,10.6267.4627,21.253.97,31.8848,1.2684,11.7533.33,23.5136.4007,35.2691.6644,25.44.5706,50.8751.1049,76.3086-.3209,14.714-.2463,29.4236-.7937,44.1328-1.2792q12.9488-.4273,25.8893-1.0937,15.2127-.77,30.4157-1.7283c9.0159-.5572,18.0257-1.2149,27.0391-1.8135.8519-.0566,1.7108-.0075,2.71-.0075.5106,6.6247,1.01,13.1106,1.5178,19.6928,4.8239-.1775,9.3139-.4634,13.9309-.99-.3076-4.472-.5961-8.6643-.8937-12.99l4.4618-.5523,3.0045,5.8353ZM70.118,342.1586c.6233.85,1.0126,1.4314,1.4518,1.9724,5.593,6.89,11.2574,13.7227,16.7475,20.6931,1.4151,1.7966,2.9061,2.5378,5.0765,2.0754a7.5781,7.5781,0,0,1,.9537-.1016c5.1767-.427,10.3524-.8685,15.5309-1.2739,5.1-.3993,10.2021-.7666,15.3039-1.1392,5.8193-.425,11.6383-.8548,17.4592-1.2558,5.742-.3955,11.4862-.7577,17.23-1.1341,6.461-.4235,12.9212-.8594,19.3833-1.2658,6.2235-.3914,12.4491-.7492,18.6735-1.1267,6.9422-.421,13.8833-.8606,20.8263-1.2678,6.7044-.3932,13.4108-.7511,20.1159-1.1327,7.3432-.418,14.6851-.8588,22.029-1.2647,7.0252-.3882,14.0525-.74,21.0784-1.1156,7.9836-.4273,15.9662-.873,23.95-1.2942,7.1862-.3793,14.3737-.7331,21.56-1.1042q12.456-.643,24.9117-1.2939c7.5064-.3813,15.0141-.7389,22.521-1.1128q12.8169-.6384,25.6336-1.2838c7.9067-.3853,15.8149-.7393,23.7219-1.1193,8.7052-.4183,17.4091-.8632,26.1147-1.2729,8.227-.3871,16.4561-.7287,24.6831-1.118,8.4662-.4006,16.93-.8648,25.3965-1.246,8.9468-.4028,17.8969-.73,26.8447-1.1115,3.7061-.1581,7.41-.3725,11.1146-.5613l-.0025-.1451Zm12.06-8.2256a149.1367,149.1367,0,0,0,13.1151-16.81,82.9413,82.9413,0,0,0,10.06-18.7994c.6389.53,1.0929.8477,1.4767,1.2347a83.32,83.32,0,0,1,10.3274,12.2668,185.6936,185.6936,0,0,1,11.5551,20.9635c.4146.8363.844,1.6654,1.288,2.54,8.462-2.1332,16.7313-4.1987,24.988-6.3135,1.935-.4957,2.4453-1.7358,1.357-3.3879-2.8559-4.3351-5.7339-8.658-8.7112-12.91-5.8545-8.3613-13.2176-14.9108-22.835-18.713-1.89-.7472-3.717-1.6539-5.5258-2.4658,2.7607-2.2246,5.5332-4.251,8.067-6.5413,6.2272-5.6287,10.78-12.6092,15.3793-19.534,1.4924-2.247,1.0843-3.2282-1.5537-3.9345q-10.0521-2.6914-20.1167-5.3365c-2.8273-.7443-3.576-.2786-4.4382,2.615a75.7875,75.7875,0,0,1-7.5084,17.8238,17.8594,17.8594,0,0,1-1.1677,1.5407,183.7764,183.7764,0,0,0-2.97-24.5818,3.6682,3.6682,0,0,0-4.0669-.5878c-9.11,3.4157-18.2658,6.7076-27.4022,10.0524-.6567.24-1.28.5711-2.0144.9027.3035.6163.5481,1.1038.7847,1.595,1.94,4.0271,3.959,8.0182,5.7969,12.0912a56.0965,56.0965,0,0,1,4.845,18.4375c.4213,4.958.4845,4.9584-3.5385,7.8267-1.4311,1.02-2.8891,2.0031-4.3282,3.0124-.575.4032-1.1322.8319-1.8306,1.3472l1.6463,2.1161,8.011-2.9731c-.2891,8.7874-1.9195,17.1224-3.452,25.5392Zm288.7913-52c.998.4264,1.8585.8354,2.7489,1.1633a3.6275,3.6275,0,0,1,2.0141,1.9129A35.2357,35.2357,0,0,1,379.96,304.89c-.5734,5.87-1.5005,11.7125-2.4827,17.5316-.5808,3.4408-1.5731,6.8123-2.41,10.3417L377.2,333.81a56.5741,56.5741,0,0,0,13.74-16.002,58.7148,58.7148,0,0,0,7.2028-19.553c.387.0791.5731.0642.6824.1486.442.3414.8692.7035,1.2861,1.0754,3.875,3.4561,6.6489,7.74,9.1527,12.22a6.3377,6.3377,0,0,1,.5815,1.5671,95.8884,95.8884,0,0,0,7.5865,19.3588c1.1582,2.3479,2.1042,2.6123,4.3063,1.25q8.4584-5.2317,16.891-10.505a13.6449,13.6449,0,0,0,1.3041-1.0667c-.8923-1.0407-1.7128-1.9113-2.4353-2.8567-1.9857-2.5986-4.0618-5.1423-5.8543-7.87-1.7935-2.73-3.3207-5.6376-4.8958-8.5051A14.675,14.675,0,0,1,425.25,299.59c-1.8359-7.511-1.3492-15.0686-.1826-22.6049.5345-3.4527,1.3066-6.8688,1.9659-10.276-2.1072-1.186-2.123-1.2018-3.676.3472a53.5519,53.5519,0,0,0-11.58,16.8953c-.2726.6354-.6049,1.2453-.789,1.6212l-12.4627-4.1615c-.0529-.5066-.0973-1.06-.17-1.61-.4918-3.7192-.93-7.447-1.5072-11.153-.3718-2.3857-1.3441-2.85-3.7278-2.047-.2268.0765-.46.1341-.6851.2159q-6.2964,2.2895-12.592,4.5813c-2.3994.87-4.8115,1.7048-7.2063,2.5867-2.2689.8356-2.49,1.476-1.2839,3.4862.3666.6107.7285,1.2243,1.0894,1.8312C371.1836,280.153,371.1836,280.153,370.97,281.933Zm123.4762,23.3914c.245.71.3687.9973.4441,1.297a84.6406,84.6406,0,0,1,2.42,18.25c.0606,2.0767.049,4.1558.05,6.2338a2.0616,2.0616,0,0,0,1.4806,2.2c1.0212.26,1.1976-.8243,1.6051-1.4678a2.029,2.029,0,0,0,.11-.2128,119.6535,119.6535,0,0,0,7.6339-20.126c1.6572-6.0626,2.5621-12.2207,1.1533-18.4686-2.0572-9.1242-6.56-17.0943-11.9439-24.6142-.9748-1.3614-1.8917-1.4826-3.5627-.642q-9.8412,4.9507-19.6519,9.9619c-1.8126.9255-1.8893,1.9472-.3037,3.1694,1.2235.9432,2.4624,1.8664,3.8171,2.8912-6.6993,4.9872-13.4834,9.4534-17.8674,16.7054-2.14-.7239-4.17-1.3947-6.1891-2.098-2.6621-.9272-3.42-.5895-4.2341,2.0116q-2.0742,6.6267-4.1085,13.2659c-.1794.5835-.2821,1.19-.4764,2.0293l8.5286,1.6468c-.7225,4.3757-1.9276,8.5128-2.0951,12.9063,6.9376,1.3887,13.6552,2.7345,20.3739,4.075a4.4583,4.4583,0,0,0,.9517.11,1.8769,1.8769,0,0,0,2.0373-2.07c-.0033-.8769-.1618-1.7533-.1653-2.63-.0179-4.5361-.0083-9.0723-.0083-13.7912A83.1761,83.1761,0,0,0,494.4459,305.3244ZM173.0732,317.3375c-.75,4.2556-1.4918,8.468-2.21,12.5463.3762.2743.4925.4239.6333.4525q9.8525,1.9993,19.7084,3.9818c2.1542.4366,3.3361-.2984,3.1952-2.7205-.2691-4.6232-.2273-9.2638-.3664-13.8956a2.01,2.01,0,0,1,1.5459-2.2833,77.0064,77.0064,0,0,0,17.1152-9.0467,19.6,19.6,0,0,1,1.8958-.988c.6744,4.03,1.4924,7.7022,1.8588,11.4187.4462,4.5256.5458,9.0873.7225,13.6361.0528,1.3583.2073,2.5189,1.958,3.0635a17.7147,17.7147,0,0,0,1.12-1.7559,112.6,112.6,0,0,0,8.1021-21.7359c1.4777-5.8584,2.1659-11.7964.6235-17.78-2.2677-8.7971-6.5756-16.5929-11.8513-23.8976-.8952-1.24-1.84-1.3557-3.3652-.6085-2.5816,1.2648-5.1408,2.575-7.7079,3.8691-3.8513,1.9416-7.7076,3.8732-11.5495,5.8331-2.6407,1.3471-2.6975,2.0935-.3749,3.8022,1.08.7942,2.1332,1.6237,3.3475,2.5509-6.5884,4.9857-13.4544,9.3738-17.7324,16.5521a7.8274,7.8274,0,0,1-1.2364-.1937c-1.8918-.63-3.7682-1.3052-5.66-1.9336-1.9279-.64-2.8243-.2024-3.4545,1.67-.4583,1.3619-.8933,2.7319-1.3189,4.1044-1.1775,3.7979-2.3446,7.599-3.6079,11.6978Zm175.732-12.052c.4307,1.7834.8313,3.2315,1.1265,4.7008a107.1864,107.1864,0,0,1,1.8062,20.4892c.0083,1.28.1151,2.3755,1.8022,3.0373a19.3566,19.3566,0,0,0,1.3182-2.0366,113.0341,113.0341,0,0,0,7.8216-20.8089c1.6921-6.41,2.4181-12.901.5682-19.4027A73.072,73.072,0,0,0,351.757,268.504c-1.0041-1.39-1.92-1.5833-3.5293-.7772q-9.9554,4.9872-19.8728,10.05c-1.6635.85-1.7369,1.9318-.2941,3.0531,1.2381.9621,2.5005,1.8929,3.8965,2.9465-6.6211,5.018-13.4683,9.4185-17.7481,16.58a9.6467,9.6467,0,0,1-1.2549-.2352c-1.8895-.6336-3.7644-1.3112-5.6564-1.9371-1.9019-.6292-2.8345-.169-3.4418,1.7258-.8767,2.7351-1.7067,5.4851-2.56,8.2278-.7525,2.42-1.5091,4.8383-2.3518,7.5393l8.6294,1.6612c-.7482,4.2469-1.4892,8.4534-2.2642,12.853,2.6127.5244,4.9411.9871,7.2675,1.46,4.2984.8734,8.5935,1.763,12.894,2.6256,2.4686.4952,3.6672-.1213,3.3606-2.9422a69.706,69.706,0,0,1-.3207-7.1793c-.0135-2.7659.1163-5.5325.1813-8.1934A85.1815,85.1815,0,0,0,348.8052,305.2855Zm-89.1013-15.44a14.1206,14.1206,0,0,1-.0869,1.688,59.4727,59.4727,0,0,1-11.95,27.3672c-.8946,1.1249-1.87,2.1851-2.7751,3.3021-1.0591,1.3073-.8842,2.2641.6424,3.0164q8.4853,4.1811,17.009,8.2841c1.8767.9021,2.8058.6224,3.771-1.1158a95.4888,95.4888,0,0,0,9.0949-21.5735,32.8,32.8,0,0,0,.6049-16.114c-.6258-2.7047-1.2813-5.4025-1.9754-8.3224,9.3572-3.6029,17.9037-8.6552,26.3943-13.998-.4985-.7426-.8457-1.26-1.2525-1.8657-9.8087,2.2677-19.61,3.97-29.6171,3.8533-1.4713-3.2494-2.88-6.36-4.36-9.63l-2.4752.6211c-.259,2.7629-.4935,5.2642-.7424,7.92-1.0656-.2646-1.8561-.3915-2.597-.6566-3.6017-1.2887-7.201-2.5863-10.78-3.9376-2.2125-.8354-2.9037-.68-4.1583,1.3171-2.7628,4.397-5.4039,8.8745-8.2965,13.1839-1.1881,1.77-.8673,3.1443,1.4484,3.556,5.1019.9069,10.21,1.79,15.333,2.5629C255.13,289.6352,257.3694,289.6682,259.7039,289.8455Zm371.9627,70.69c-2.1212.6162-3.7282,1.0023-5.2739,1.5585a19.5888,19.5888,0,0,0-3.3969,1.6335c-.69.4129-1.2808,1.1277-.6954,2.0035.556.8315,1.3091.6615,2.0914.1944a3.7469,3.7469,0,0,1,3.1819-.7533c-.0674.4843-.1268.8642-.1723,1.2458a11.6645,11.6645,0,0,0,.2032,4.3917c.6229,2.4883,1.43,5.0859.4913,7.7677-.1583.452.4554,1.1739.7133,1.7732,2.5233-1.147,3.8538-3.0976,5.1734-5.0988,1.1146-1.69,2.3734-3.286,3.5884-4.9511l5.8538,10.3059a10.763,10.763,0,0,0,2.7641-1.68c2.5146-2.8719,5.43-5.4542,7.1968-8.9053a13.0762,13.0762,0,0,0,1.6972-7.5951c-.1816-1.51-.8906-1.944-2.2678-1.27a5.0834,5.0834,0,0,0-2.6605,3.37c1.7131.9262,1.4364,2.2637.8516,3.8a18.56,18.56,0,0,1-4.7442,6.67c-2.5267-1.874-4.218-5.6309-4.4608-8.8248-.1008-1.3266-.9151-2.1494-1.4362-3.1754a1.4716,1.4716,0,0,0-1.2152-.4785,3.3157,3.3157,0,0,0-2.6707,3.13,4.1542,4.1542,0,0,1-.3729,2.0459c-1.09,1.5981-2.3513,3.079-3.7632,4.8831a13.047,13.047,0,0,1,.6649-10.7678ZM525.6841,371.7223c.4269.806.85,1.2529.88,1.7251a30.393,30.393,0,0,0,.9928,5.0213c.2691,1.1409.5883,1.7813,1.8778,2.0427,1.3088.2654,2.0617.1325,2.683-1.1407a9.3493,9.3493,0,0,1,1.7706-1.93c.38-.4073.9349-.7783,1.0647-1.2591a2.4157,2.4157,0,0,0-.2819-1.6806c-.0957-.1652-1.0836-.0751-1.4044.2-.895.7687-1.6539,1.6955-2.8715,2.9907-.0783-1.2708-.127-1.998-.1673-2.7257a36.6033,36.6033,0,0,0-.35-5.4378c-.4616-2.2056-1.8641-2.5712-3.6687-1.1215-1.0966.881-2.0735,1.9111-3.3339,3.0889a17.4925,17.4925,0,0,1-.0733-1.8417c.0941-1.2368-.8307-1.65-1.6779-2.0615a1.6223,1.6223,0,0,0-2.0871.6688c-.8543,1.05-1.7208,2.0909-2.6151,3.1065a11.3176,11.3176,0,0,1-3.1571,2.9694c1.0229-3.3283,1.81-6.1631,3.5379-8.6293a3.2122,3.2122,0,0,0-4.3605.425,33.7162,33.7162,0,0,0-2.8568,3.7872c.4841.7673,1.2675,1.4354,1.1947,1.9915-.3467,2.6484.075,5.4441-1.2937,7.9139a1.8348,1.8348,0,0,0,.4535,2.7156,10.67,10.67,0,0,1,1.2466,1.2936c1.9757-1.45,2.303-2.0717,2.3381-4.0719a2.048,2.048,0,0,1,.2722-1.1319c1.64-2.1882,3.3267-4.3421,4.9987-6.5067a2.4269,2.4269,0,0,1,.63,1.9141,24.7191,24.7191,0,0,1-1.1717,3.5872c-.77,1.8832-.5506,2.6758,1.1582,3.58,2.236-1.1669,2.1474-1.206,3.1595-3.4955C523.4293,375.7683,524.5237,373.9305,525.6841,371.7223Zm-88.3557,25.344c1.447,1.4733,2.1154,1.5267,2.7757.1324a68.3812,68.3812,0,0,0,3.43-7.8754c1.916-5.86,3.64-11.7858,5.3188-17.72.519-1.8342,1.3174-3.7237.5821-5.8416a8.13,8.13,0,0,0-2.3372.4732c-.786.4291-1.893,1.1165-1.9821,1.8056-.21,1.6256-1.205,2.5234-2.2212,3.5305-1.1625,1.1521-2.1559,2.5027-3.9949,3.289-.3433-3.3722.8914-6.2594,1.4219-9.3027a1.2947,1.2947,0,0,0-2.1093-.5911c-1.58,1.0774-3.1489,2.1742-4.688,3.31-.7008.5171-1.5514,1.1427-.9129,2.15.5795.9141,1.3966.3183,2.1242.0547.09-.0326.2495.1258.4613.242-.0133.2668-.0136.5762-.0463.8822-.2442,2.2812-.5946,4.5566-.7119,6.844-.0933,1.8181.9538,2.51,2.5545,1.7094a11.6683,11.6683,0,0,0,2.8529-2.13c1.5235-1.4928,2.9292-3.1056,4.489-4.7811a5.84,5.84,0,0,1,.2682,4.0853c-.937,3.1946-1.9463,6.3688-2.8316,9.5774A38.73,38.73,0,0,1,437.3284,397.0663Zm-17.3466-31.0548a8.8133,8.8133,0,0,1,.42-3.5892c.5424-2.1465,1.0778-4.295,1.6524-6.433a22.1693,22.1693,0,0,0,.7514-2.255c.2121-1.3826-.732-2.1957-1.8359-1.4147a64.3069,64.3069,0,0,0-6.7566,5.5837c-.8681.8129-.2479,1.911,1.0372,1.8559a13.1611,13.1611,0,0,0,2.9317-.849c-.1553,1.3769-.317,2.7108-.4541,4.0472-.3725,3.6308-1.2654,7.1723-1.2155,10.8938a10.5213,10.5213,0,0,1-3.1594,8.2123c-.1772.1624-.1378.5609-.2.854a2.2075,2.2075,0,0,0,2.9256-.2489,11.4777,11.4777,0,0,1,1.627-1.411,34.8636,34.8636,0,0,0,10.2738-10.5341c1.91-2.8636,1.1557-4.32-2.2854-4.7227a12.2212,12.2212,0,0,0-1.4316.01C422.9139,366.0131,421.5657,366.0115,419.9818,366.0115Zm56.9167-4.0826.5035.3141a8.0307,8.0307,0,0,0-.1239,1.587,1.28,1.28,0,0,0,1.89,1.0922,5.1647,5.1647,0,0,0,2.8566-5.659c-.4933-2.0326-1.8751-2.6536-3.7069-1.6512a10.96,10.96,0,0,0-1.417.8787q-4.3627,3.3438-8.6974,6.7238c-1.0476.8209-2.0362,1.717-3.01,2.5431a2.6555,2.6555,0,0,0,2.9966,2.034,61.4486,61.4486,0,0,1,7.3935.2182,3.4167,3.4167,0,0,1,2.9879,2.5019c.323,1.8731-.1731,3.393-1.687,4.1029-2.4467,1.1473-4.9506,2.2528-7.7834,1.8675a1.1114,1.1114,0,0,1-.3592-.1969l-.4532-1.767a5.7392,5.7392,0,0,0-2.0968.1408c-.8733.4251-1.9961.8357-1.9127,2.1645a2.5336,2.5336,0,0,0,2.333,2.0384c.2361.0366.4768.0458.7158.0616a22.8278,22.8278,0,0,0,11.07-2.45,10.5139,10.5139,0,0,0,3.0551-2.2594c2.0414-2.1034,1.783-4.698-.3417-6.5578a9.95,9.95,0,0,0-5.4-2.0784c-1.9191-.2893-3.8523-.4843-6.2493-.7783Zm108.6776,11.9065a5.634,5.634,0,0,1,.4967,1.3843,8.8885,8.8885,0,0,0,1.7175,4.6382c1.0306,1.6715,2.06,1.7365,3.4188.2644,1.397-1.5134,2.7073-3.1082,4.1347-4.5914.6552-.6808,1.0137-1.3543.26-2.0273-.7976-.7124-1.4294-.0774-2.0107.5354a9.7818,9.7818,0,0,1-2.6517,2.32c-1.4213-2.822-1.1521-5.7376-1.3672-8.56-.0333-.4375.52-.9051.7552-1.3818.2223-.4505.3831-.9313.5993-1.4694-1.8257-.8186-3.4948-.4746-5.13-.3416a6.66,6.66,0,0,0-6,4.4024,50.9391,50.9391,0,0,0-2.7832,9.2454,15.9232,15.9232,0,0,0,.1575,3.6537c2.4042.5581,3.38-.8437,4.3479-2.2148C582.82,377.8522,584.0877,375.9889,585.5761,373.8354Zm-89.0552-.0615c.2427.8179.35,1.2676.5088,1.6979a34.5086,34.5086,0,0,0,1.7088,4.4043c.8868,1.6511,1.93,1.7327,3.2268.38,1.5395-1.6055,3.0293-3.2647,4.4343-4.9874a1.7592,1.7592,0,0,0,.1453-1.6416c-.5133-.7444-1.2384-.4554-1.82.1356-.8769.89-1.7645,1.77-2.9745,2.9825-.4215-1.74-.8324-3.0129-1.0176-4.3181a15.5728,15.5728,0,0,1-.1728-4.059,20.8475,20.8475,0,0,1,1.2319-3.7677c-1.9885,0-3.5739-.1074-5.1395.0228a6.7217,6.7217,0,0,0-6.1569,4.881c-.8364,2.5236-1.7806,5.0153-2.3855,7.63a7.8685,7.8685,0,0,0,.2636,4.8817,3.039,3.039,0,0,0,3.2-1.2676c.9028-1.3849,1.9244-2.6922,2.8865-4.0388C495.0884,375.83,495.7032,374.94,496.5209,373.7739ZM680.0132,383.13a4.452,4.452,0,0,0,4.17-2.0785,28.1014,28.1014,0,0,0,3.227-8.6658c.3755-1.5511.5268-1.74,2.07-1.5917a10.6936,10.6936,0,0,1,1.9995.6284c.4363.1342,1.0208.4716,1.3006.3088a13.8534,13.8534,0,0,0,3.0548-2.1943c.72-.7458.0635-1.8793-1.0893-2.0477-.545-.08-1.1164.0408-1.6707,0-1.3149-.0959-2.7225.1958-3.9662-.8778.2448-1.448.491-2.9041.7812-4.62l5.378.82a20.5435,20.5435,0,0,0,2.6159-1.9124,2.3587,2.3587,0,0,0,.3389-1.719c-.02-.2053-.7516-.5212-1.1306-.4862a69.543,69.543,0,0,1-12.2628.1687,4.6128,4.6128,0,0,0-4.6322,2.4517l1.237,1.5877,3.9921-.83c-.14,1.7789-.1983,3.172-.39,4.5465a1.8608,1.8608,0,0,1-.7763,1.07,2.44,2.44,0,0,0-1.3307,2.081c-.0262,1.3245,1.2075,1.2743,1.8269,1.8659-.6172,3.2383-.875,6.5185-4.1819,8.4653A2.1415,2.1415,0,0,0,680.0132,383.13Zm-123.57-5.8715c-1.4587-.9705-1.3328-2.4107-1.1468-3.8071.23-1.7242.5408-3.4412.902-5.1433.3367-1.5864-.1234-2.2458-1.6247-1.7722a6.211,6.211,0,0,0-2.4291,1.753c-2.38,2.5384-4.6741,5.1562-7.12,7.876a5.9161,5.9161,0,0,1-.2745-4.7706c.5448-1.4794,1.2276-2.9088,1.749-4.3955.1852-.5281.314-1.434.0375-1.6763a2.0539,2.0539,0,0,0-1.7332-.1206c-1.5479.5683-3.05,1.27-4.543,1.9756a6.0794,6.0794,0,0,0-1.5564,1.0594c-.24.2271-.4679.8078-.3443,1.0029a1.7315,1.7315,0,0,0,1.0814.6859,16.767,16.767,0,0,0,2.4121.03c-.4033,1.7912-.6467,3.422-1.1538,4.9663a7.9364,7.9364,0,0,0-.4517,4.4487c.5852,2.41,2.1432,3.0161,3.9207,1.3326,1.9-1.7991,3.5564-3.8535,5.34-5.777.5517-.5949.8938-1.4967,2.2832-1.58-.3092,1.7867-.6471,3.39-.8348,5.0109a2.2447,2.2447,0,0,0,.4186,1.7278c.33.28,1.1713.1265,1.7189-.0484A6.0516,6.0516,0,0,0,556.4435,377.2582Zm108.641,3.6911c.6919-.6145,1.6132-1.1114,2.0286-1.881a13.0434,13.0434,0,0,0,1.018-3.3944c.9179-4.1679,1.1809-8.483,3.0234-12.442.7274-1.563.7005-1.6813,2.4271-1.2479a6.2977,6.2977,0,0,0,6.1549-2.6616,1.53,1.53,0,0,0,.0784-1.2987c-.1556-.2374-.83-.2624-1.2366-.1854-1.5456.2927-3.0607.7908-4.6155.9809a83.8392,83.8392,0,0,1-9.1349.81,7.5225,7.5225,0,0,0-6.2452,3.38l1.8567,2.6572c2.62-.5705,3.5724-3.6648,6.5881-3.3354-1.0358,5.9514-1.1951,12.0476-4.2083,17.6192ZM604.85,376.98a7.6453,7.6453,0,0,1-.1019-1.2932c.3716-2.5931.7388-5.1875,1.1719-7.7707.11-.6556.3737-1.3773-.3994-1.6269a2.5879,2.5879,0,0,0-1.7445.2183,13.5118,13.5118,0,0,0-2.6073,1.6532,17.5913,17.5913,0,0,0-2.7173,2.6465,1.85,1.85,0,0,0,.077,1.6864c.4326.6808,1.0769.4335,1.591-.1237.3035-.3291.6651-.6046,1.018-.92.2155,3.5533-1.61,7.0239.23,10.6942,2.26-1.4207,4.2819-2.6168,6.2077-3.952a3.6573,3.6573,0,0,0,1.1109-1.76,1.3313,1.3313,0,0,0-.3434-1.2172,1.4555,1.4555,0,0,0-1.3022.0177A20.3282,20.3282,0,0,0,604.85,376.98Zm-39.7767-6.4133c-.1418.7228-.0711,1.4622-.4074,1.8288a1.8228,1.8228,0,0,0-.4959,1.9494,3.039,3.039,0,0,1-.2691,2.4926,11.51,11.51,0,0,0-.7992,2.4892c-.2339,1.0836.3459,1.64,1.4759,1.534a3.1915,3.1915,0,0,0,2.7094-2.64c.27-1.3914.4387-2.8027.6449-4.2063a6.6958,6.6958,0,0,1,4.37-4.7805,7.1174,7.1174,0,0,0,2.2536-1.2061,1.3809,1.3809,0,0,0,.4686-1.1963,1.43,1.43,0,0,0-1.0845-.7178,4.33,4.33,0,0,0-1.8271.3529c-.99.4052-1.93.9308-3.0107,1.4653v-2.3762c-3.5915.0009-6.2156,1.7559-6.7018,4.3653.113.1149.21.3039.3361.3263C563.3593,370.3581,563.99,370.4248,565.0733,370.5666Zm42.55-13.6114c-2.207.1878-3.2346.6434-3.6456,1.9671a2.27,2.27,0,0,0,.3582,1.9024,2.15,2.15,0,0,0,1.86.4583C607.6014,360.827,608.264,358.5566,607.6236,356.9552Z"/></g></svg>