<svg id="Target_logo_Image" data-name="Target logo Image" xmlns="http://www.w3.org/2000/svg" width="398.4729" height="504.851" viewBox="0 0 398.4729 504.851"><defs><style>.cls-1,.cls-2{fill:none;stroke:#000;stroke-miterlimit:10;}.cls-1{stroke-width:30.4126px;}.cls-2{stroke-width:26px;}</style></defs><circle class="cls-1" cx="272.5302" cy="335.2691" r="110.7364"/><circle class="cls-2" cx="272.5302" cy="335.2691" r="47.2506"/><path d="M278.5874,244.5824c.3389,16.2166-4.7981,36.0733-10.2606,55.7847-7.9421,28.6589-15.935,57.3263-24.9421,85.6607-7.6,23.9094-22.6737,42.7206-43.632,56.657-12.3263,8.1964-24.7439,16.2555-37.0537,24.4763-16.3267,10.9035-28.682,25.6594-39.61,41.6755-2.1973,3.22-2.8724,7.45-4.8749,10.8446-1.0522,1.7837-3.4586,2.7686-5.2535,4.1142a49.1575,49.1575,0,0,1-3.0749-6.02c-.7986-2.2365-.628-4.8925-1.685-6.9526Q69.02,434.4606,29.5525,358.2458a13.3032,13.3032,0,0,1-.62-12.1711Q88.0988,195.1016,147.0819,44.0571c2.0473-5.2287,3.5748-10.32,2.3593-15.9583-.2761-1.2808-.6395-2.9253-.09-3.92a36.5964,36.5964,0,0,1,4.1769-5.2343c1.4615,1.5293,3.97,2.8985,4.2317,4.6113,6.8942,45.07,33.6357,77.693,67.1878,105.511,10.7937,8.949,20.3765,18.528,28.2916,29.8821C269.996,182.9857,278.5765,210.7929,278.5874,244.5824ZM112.1125,509.5533c15.7989-25.4707,35.7355-45.4876,61.2652-59.7873,4.0535-2.27,7.7308-5.2052,11.7456-7.5531,28.4792-16.655,46.4855-41.2975,55.107-72.853,8.9778-32.86,18.6356-65.59,26.0138-98.8169,10.52-47.3737-1.8574-89.2042-34.9819-124.7672a34.8741,34.8741,0,0,0-5.94-5.2866c-16.0839-10.773-29.4253-24.3707-41.048-39.7185A237.6284,237.6284,0,0,1,151.767,43.5466c-.9331,2.077-1.6523,3.5088-2.233,4.9948Q91.3438,197.438,33.0977,346.3128a12.1882,12.1882,0,0,0,.5084,11.1963c16.23,31.106,32.2272,62.3338,48.3046,93.52C91.8852,470.3768,101.8752,489.717,112.1125,509.5533Z" transform="translate(-27.4698 -18.9444)"/><path d="M306.2571,354.2085l-14.6164,9.758c-.2088-2.8452-.3695-5.0341-.5473-7.4565-1.4408-.1193-2.7337-.31-4.0281-.3214q-101.9932-.8839-203.9871-1.6935c-1.9263-.0148-4.4184,0-5.6857,1.1044-4.49,3.912-9.6724,3.6891-15.0095,3.6159-8.4416-.1159-16.8859-.0309-25.9883-.0309l3.5867-4.9572a89.738,89.738,0,0,1-9.164-.0961c-1.1755-.1292-2.2352-1.31-3.3476-2.0135,1.1711-.6406,2.2984-1.71,3.5222-1.8346,2.7316-.2792,5.5113-.0873,9.1054-.0873L36.3435,345.22c11.7855,0,22.8778-.0323,33.9692.0517a5.187,5.187,0,0,1,3.1583,1.1768c4.4352,3.96,9.6975,4.3943,15.3331,4.4239q98.7538.5193,197.5067,1.2473c1.4689.01,2.938.0012,4.6868.0012.2147-2.5717.3982-4.77.6395-7.6607Z" transform="translate(-27.4698 -18.9444)"/></svg>