<svg xmlns="http://www.w3.org/2000/svg" width="1238.1521" height="685.6118" viewBox="0 0 1238.1521 685.6118"><g id="Tools_Image" data-name="Tools Image"><path d="M915.9213,250.9917l-20.434-32.8688,36.3806-22.7553c6.7057,10.6858,13.3666,21.3005,20.798,33.1426l286.38-198.7521,28.1177,43.35C1172.9015,141.4084,1076.44,206.34,978.3337,269.64l19.7309,31.7571-36.3818,22.7475-19.627-31.2912c-1.7916,1.0975-3.4411,2.0811-5.0643,3.1064C803.81,380.0846,668.1225,459.8712,528.021,531.9976,429.7282,582.6,329.6536,629.289,226.196,668.4662c-45.9243,17.3906-92.3893,33.183-139.7427,46.27a12.2517,12.2517,0,0,1-4.8517.563c-16.7938-2.4657-33.57-5.0542-50.3473-7.6278a14.92,14.92,0,0,1-2.2425-.9572c8.094-2.378,15.3483-4.4041,22.5381-6.638,67.4737-20.9643,132.8258-47.4575,197.3659-76.0285C375.6635,567.938,498.0471,503.317,618.18,434.3245c99.7786-57.3029,197.5541-117.8676,293.9431-180.6871C913.23,252.9162,914.2931,252.1286,915.9213,250.9917Z" transform="translate(-29.0118 -29.7581)"/></g><g id="Tools_Image_copy" data-name="Tools Image copy"><path d="M380.2545,250.9917c6.876-11.06,13.54-21.78,20.434-32.8688l-36.3806-22.7553c-6.7057,10.6858-13.3666,21.3005-20.798,33.1426L57.13,29.7581C48.2226,43.49,38.8237,57.98,29.0118,73.1076c94.2625,68.3008,190.7245,133.2325,288.83,196.532-6.5974,10.6186-13.0608,21.0214-19.7309,31.7571l36.3818,22.7475L354.12,292.853c1.7915,1.0975,3.4411,2.0811,5.0643,3.1064,133.1813,84.1252,268.869,163.9118,408.9705,236.0382C866.4476,582.6,966.5222,629.289,1069.98,668.4662c45.9243,17.3906,92.3893,33.183,139.7427,46.27a12.2517,12.2517,0,0,0,4.8517.563c16.7937-2.4657,33.57-5.0542,50.3473-7.6278a14.9245,14.9245,0,0,0,2.2425-.9572c-8.094-2.378-15.3483-4.4041-22.5381-6.638-67.4737-20.9643-132.8258-47.4575-197.3659-76.0285C920.5123,567.938,798.1287,503.317,677.9958,434.3245c-99.7786-57.3029-197.5541-117.8676-293.9431-180.6871C382.946,252.9162,381.8827,252.1286,380.2545,250.9917Z" transform="translate(-29.0118 -29.7581)"/></g></svg>